{
  "asset": {
    "version": "2.0",
    "generator": "THREE.GLTFExporter"
  },
  "scenes": [
    {
      "nodes": [
        0
      ]
    }
  ],
  "scene": 0,
  "nodes": [
    {
      "children": [
        506
      ],
      "matrix": [
        0.01,
        0,
        0,
        0,
        0,
        0.01,
        0,
        0,
        0,
        0,
        0.01,
        0,
        0,
        0,
        0,
        1
      ]
    },
    {
      "matrix": [
        1,
        0,
        0,
        0,
        0,
        1,
        0,
        0,
        0,
        0,
        1,
        0,
        -9.368371559228194,
        58.76684165146435,
        -172.67756250287314,
        1
      ],
      "name": "Point Light 2",
      "extensions": {
        "KHR_lights_punctual": {
          "light": 0
        }
      }
    },
    {
      "matrix": [
        1,
        0,
        0,
        0,
        0,
        -1,
        -1.2246467991473532e-16,
        0,
        0,
        1.2246467991473532e-16,
        -1,
        0,
        0,
        -916.6704357667338,
        -2.862483852211699e-13,
        1
      ],
      "name": "Spot Light",
      "extensions": {
        "KHR_lights_punctual": {
          "light": 1
        }
      }
    },
    {
      "matrix": [
        6.123233995736766e-17,
        0,
        1,
        0,
        0,
        1,
        0,
        0,
        -1,
        0,
        6.123233995736766e-17,
        0,
        0,
        0,
        0,
        1
      ],
      "name": "Directional Light 2",
      "extensions": {
        "KHR_lights_punctual": {
          "light": 2
        }
      }
    },
    {
      "matrix": [
        1,
        0,
        0,
        0,
        0,
        1,
        0,
        0,
        0,
        0,
        1,
        0,
        -18.417997693592042,
        526.0653712946623,
        1358.4314183243114,
        1
      ],
      "name": "Point Light",
      "extensions": {
        "KHR_lights_punctual": {
          "light": 3
        }
      }
    },
    {
      "matrix": [
        0.8050759749135502,
        1.3979939997299518e-8,
        0.5931717075324788,
        0,
        0.20532844546053597,
        0.9381778947469347,
        -0.27867986524499605,
        0,
        -0.5565005876921932,
        0.3461534887997076,
        0.7553044803852512,
        0,
        -683.5039516618989,
        662.6211588268897,
        841.3142869251875,
        1
      ],
      "name": "Camera",
      "camera": 0
    },
    {
      "name": "black",
      "mesh": 0
    },
    {
      "matrix": [
        1,
        0,
        0,
        0,
        0,
        1,
        0,
        0,
        0,
        0,
        1,
        0,
        -272,
        0,
        0,
        1
      ],
      "name": "purple",
      "children": [
        6
      ]
    },
    {
      "name": "black",
      "mesh": 0
    },
    {
      "matrix": [
        1,
        0,
        0,
        0,
        0,
        1,
        0,
        0,
        0,
        0,
        1,
        0,
        -272,
        0,
        -32,
        1
      ],
      "name": "purple",
      "children": [
        8
      ]
    },
    {
      "name": "black",
      "mesh": 0
    },
    {
      "matrix": [
        1,
        0,
        0,
        0,
        0,
        1,
        0,
        0,
        0,
        0,
        1,
        0,
        -272,
        0,
        -64,
        1
      ],
      "name": "purple",
      "children": [
        10
      ]
    },
    {
      "name": "black",
      "mesh": 0
    },
    {
      "matrix": [
        1,
        0,
        0,
        0,
        0,
        1,
        0,
        0,
        0,
        0,
        1,
        0,
        -272,
        0,
        -96,
        1
      ],
      "name": "purple",
      "children": [
        12
      ]
    },
    {
      "name": "black",
      "mesh": 0
    },
    {
      "matrix": [
        1,
        0,
        0,
        0,
        0,
        1,
        0,
        0,
        0,
        0,
        1,
        0,
        -240,
        0,
        32,
        1
      ],
      "name": "purple",
      "children": [
        14
      ]
    },
    {
      "name": "black",
      "mesh": 0
    },
    {
      "matrix": [
        1,
        0,
        0,
        0,
        0,
        1,
        0,
        0,
        0,
        0,
        1,
        0,
        -208,
        0,
        32,
        1
      ],
      "name": "purple",
      "children": [
        16
      ]
    },
    {
      "name": "black",
      "mesh": 0
    },
    {
      "matrix": [
        1,
        0,
        0,
        0,
        0,
        1,
        0,
        0,
        0,
        0,
        1,
        0,
        -208,
        0,
        -128,
        1
      ],
      "name": "purple",
      "children": [
        18
      ]
    },
    {
      "name": "black",
      "mesh": 0
    },
    {
      "matrix": [
        1,
        0,
        0,
        0,
        0,
        1,
        0,
        0,
        0,
        0,
        1,
        0,
        -208,
        0,
        -160,
        1
      ],
      "name": "purple",
      "children": [
        20
      ]
    },
    {
      "name": "black",
      "mesh": 0
    },
    {
      "matrix": [
        1,
        0,
        0,
        0,
        0,
        1,
        0,
        0,
        0,
        0,
        1,
        0,
        -176,
        0,
        224,
        1
      ],
      "name": "purple",
      "children": [
        22
      ]
    },
    {
      "name": "black",
      "mesh": 0
    },
    {
      "matrix": [
        1,
        0,
        0,
        0,
        0,
        1,
        0,
        0,
        0,
        0,
        1,
        0,
        -176,
        0,
        96,
        1
      ],
      "name": "purple",
      "children": [
        24
      ]
    },
    {
      "name": "black",
      "mesh": 0
    },
    {
      "matrix": [
        1,
        0,
        0,
        0,
        0,
        1,
        0,
        0,
        0,
        0,
        1,
        0,
        -176,
        0,
        64,
        1
      ],
      "name": "purple",
      "children": [
        26
      ]
    },
    {
      "name": "black",
      "mesh": 0
    },
    {
      "matrix": [
        1,
        0,
        0,
        0,
        0,
        1,
        0,
        0,
        0,
        0,
        1,
        0,
        -176,
        0,
        32,
        1
      ],
      "name": "purple",
      "children": [
        28
      ]
    },
    {
      "name": "black",
      "mesh": 0
    },
    {
      "matrix": [
        1,
        0,
        0,
        0,
        0,
        1,
        0,
        0,
        0,
        0,
        1,
        0,
        -176,
        0,
        0,
        1
      ],
      "name": "purple",
      "children": [
        30
      ]
    },
    {
      "name": "black",
      "mesh": 0
    },
    {
      "matrix": [
        1,
        0,
        0,
        0,
        0,
        1,
        0,
        0,
        0,
        0,
        1,
        0,
        -176,
        0,
        -32,
        1
      ],
      "name": "purple",
      "children": [
        32
      ]
    },
    {
      "name": "black",
      "mesh": 0
    },
    {
      "matrix": [
        1,
        0,
        0,
        0,
        0,
        1,
        0,
        0,
        0,
        0,
        1,
        0,
        -176,
        0,
        -64,
        1
      ],
      "name": "purple",
      "children": [
        34
      ]
    },
    {
      "name": "black",
      "mesh": 0
    },
    {
      "matrix": [
        1,
        0,
        0,
        0,
        0,
        1,
        0,
        0,
        0,
        0,
        1,
        0,
        -176,
        0,
        -160,
        1
      ],
      "name": "purple",
      "children": [
        36
      ]
    },
    {
      "name": "black",
      "mesh": 0
    },
    {
      "matrix": [
        1,
        0,
        0,
        0,
        0,
        1,
        0,
        0,
        0,
        0,
        1,
        0,
        -176,
        0,
        -224,
        1
      ],
      "name": "purple",
      "children": [
        38
      ]
    },
    {
      "name": "black",
      "mesh": 0
    },
    {
      "matrix": [
        1,
        0,
        0,
        0,
        0,
        1,
        0,
        0,
        0,
        0,
        1,
        0,
        -144,
        0,
        96,
        1
      ],
      "name": "purple",
      "children": [
        40
      ]
    },
    {
      "name": "black",
      "mesh": 0
    },
    {
      "matrix": [
        1,
        0,
        0,
        0,
        0,
        1,
        0,
        0,
        0,
        0,
        1,
        0,
        -144,
        0,
        64,
        1
      ],
      "name": "purple",
      "children": [
        42
      ]
    },
    {
      "name": "black",
      "mesh": 0
    },
    {
      "matrix": [
        1,
        0,
        0,
        0,
        0,
        1,
        0,
        0,
        0,
        0,
        1,
        0,
        -144,
        0,
        32,
        1
      ],
      "name": "purple",
      "children": [
        44
      ]
    },
    {
      "name": "black",
      "mesh": 0
    },
    {
      "matrix": [
        1,
        0,
        0,
        0,
        0,
        1,
        0,
        0,
        0,
        0,
        1,
        0,
        -144,
        0,
        0,
        1
      ],
      "name": "purple",
      "children": [
        46
      ]
    },
    {
      "name": "black",
      "mesh": 0
    },
    {
      "matrix": [
        1,
        0,
        0,
        0,
        0,
        1,
        0,
        0,
        0,
        0,
        1,
        0,
        -144,
        0,
        -32,
        1
      ],
      "name": "purple",
      "children": [
        48
      ]
    },
    {
      "name": "black",
      "mesh": 0
    },
    {
      "matrix": [
        1,
        0,
        0,
        0,
        0,
        1,
        0,
        0,
        0,
        0,
        1,
        0,
        -144,
        0,
        -64,
        1
      ],
      "name": "purple",
      "children": [
        50
      ]
    },
    {
      "name": "black",
      "mesh": 0
    },
    {
      "matrix": [
        1,
        0,
        0,
        0,
        0,
        1,
        0,
        0,
        0,
        0,
        1,
        0,
        -144,
        0,
        -96,
        1
      ],
      "name": "purple",
      "children": [
        52
      ]
    },
    {
      "name": "black",
      "mesh": 0
    },
    {
      "matrix": [
        1,
        0,
        0,
        0,
        0,
        1,
        0,
        0,
        0,
        0,
        1,
        0,
        -112,
        0,
        160,
        1
      ],
      "name": "purple",
      "children": [
        54
      ]
    },
    {
      "name": "black",
      "mesh": 0
    },
    {
      "matrix": [
        1,
        0,
        0,
        0,
        0,
        1,
        0,
        0,
        0,
        0,
        1,
        0,
        -112,
        0,
        128,
        1
      ],
      "name": "purple",
      "children": [
        56
      ]
    },
    {
      "name": "black",
      "mesh": 0
    },
    {
      "matrix": [
        1,
        0,
        0,
        0,
        0,
        1,
        0,
        0,
        0,
        0,
        1,
        0,
        -112,
        0,
        96,
        1
      ],
      "name": "purple",
      "children": [
        58
      ]
    },
    {
      "name": "black",
      "mesh": 0
    },
    {
      "matrix": [
        1,
        0,
        0,
        0,
        0,
        1,
        0,
        0,
        0,
        0,
        1,
        0,
        -112,
        0,
        64,
        1
      ],
      "name": "purple",
      "children": [
        60
      ]
    },
    {
      "name": "black",
      "mesh": 0
    },
    {
      "matrix": [
        1,
        0,
        0,
        0,
        0,
        1,
        0,
        0,
        0,
        0,
        1,
        0,
        -112,
        0,
        -64,
        1
      ],
      "name": "purple",
      "children": [
        62
      ]
    },
    {
      "name": "black",
      "mesh": 0
    },
    {
      "matrix": [
        1,
        0,
        0,
        0,
        0,
        1,
        0,
        0,
        0,
        0,
        1,
        0,
        -112,
        0,
        -96,
        1
      ],
      "name": "purple",
      "children": [
        64
      ]
    },
    {
      "name": "black",
      "mesh": 0
    },
    {
      "matrix": [
        1,
        0,
        0,
        0,
        0,
        1,
        0,
        0,
        0,
        0,
        1,
        0,
        -112,
        0,
        -128,
        1
      ],
      "name": "purple",
      "children": [
        66
      ]
    },
    {
      "name": "black",
      "mesh": 0
    },
    {
      "matrix": [
        1,
        0,
        0,
        0,
        0,
        1,
        0,
        0,
        0,
        0,
        1,
        0,
        -80,
        0,
        160,
        1
      ],
      "name": "purple",
      "children": [
        68
      ]
    },
    {
      "name": "black",
      "mesh": 0
    },
    {
      "matrix": [
        1,
        0,
        0,
        0,
        0,
        1,
        0,
        0,
        0,
        0,
        1,
        0,
        -80,
        0,
        128,
        1
      ],
      "name": "purple",
      "children": [
        70
      ]
    },
    {
      "name": "black",
      "mesh": 0
    },
    {
      "matrix": [
        1,
        0,
        0,
        0,
        0,
        1,
        0,
        0,
        0,
        0,
        1,
        0,
        -80,
        0,
        96,
        1
      ],
      "name": "purple",
      "children": [
        72
      ]
    },
    {
      "name": "black",
      "mesh": 0
    },
    {
      "matrix": [
        1,
        0,
        0,
        0,
        0,
        1,
        0,
        0,
        0,
        0,
        1,
        0,
        -80,
        0,
        64,
        1
      ],
      "name": "purple",
      "children": [
        74
      ]
    },
    {
      "name": "black",
      "mesh": 0
    },
    {
      "matrix": [
        1,
        0,
        0,
        0,
        0,
        1,
        0,
        0,
        0,
        0,
        1,
        0,
        -80,
        0,
        -64,
        1
      ],
      "name": "purple",
      "children": [
        76
      ]
    },
    {
      "name": "black",
      "mesh": 0
    },
    {
      "matrix": [
        1,
        0,
        0,
        0,
        0,
        1,
        0,
        0,
        0,
        0,
        1,
        0,
        -80,
        0,
        -96,
        1
      ],
      "name": "purple",
      "children": [
        78
      ]
    },
    {
      "name": "black",
      "mesh": 0
    },
    {
      "matrix": [
        1,
        0,
        0,
        0,
        0,
        1,
        0,
        0,
        0,
        0,
        1,
        0,
        -80,
        0,
        -128,
        1
      ],
      "name": "purple",
      "children": [
        80
      ]
    },
    {
      "name": "black",
      "mesh": 0
    },
    {
      "matrix": [
        1,
        0,
        0,
        0,
        0,
        1,
        0,
        0,
        0,
        0,
        1,
        0,
        -80,
        0,
        -160,
        1
      ],
      "name": "purple",
      "children": [
        82
      ]
    },
    {
      "name": "black",
      "mesh": 0
    },
    {
      "matrix": [
        1,
        0,
        0,
        0,
        0,
        1,
        0,
        0,
        0,
        0,
        1,
        0,
        -80,
        0,
        -192,
        1
      ],
      "name": "purple",
      "children": [
        84
      ]
    },
    {
      "name": "black",
      "mesh": 0
    },
    {
      "matrix": [
        1,
        0,
        0,
        0,
        0,
        1,
        0,
        0,
        0,
        0,
        1,
        0,
        -48,
        0,
        96,
        1
      ],
      "name": "purple",
      "children": [
        86
      ]
    },
    {
      "name": "black",
      "mesh": 0
    },
    {
      "matrix": [
        1,
        0,
        0,
        0,
        0,
        1,
        0,
        0,
        0,
        0,
        1,
        0,
        -48,
        0,
        64,
        1
      ],
      "name": "purple",
      "children": [
        88
      ]
    },
    {
      "name": "black",
      "mesh": 0
    },
    {
      "matrix": [
        1,
        0,
        0,
        0,
        0,
        1,
        0,
        0,
        0,
        0,
        1,
        0,
        -48,
        0,
        32,
        1
      ],
      "name": "purple",
      "children": [
        90
      ]
    },
    {
      "name": "black",
      "mesh": 0
    },
    {
      "matrix": [
        1,
        0,
        0,
        0,
        0,
        1,
        0,
        0,
        0,
        0,
        1,
        0,
        -48,
        0,
        0,
        1
      ],
      "name": "purple",
      "children": [
        92
      ]
    },
    {
      "name": "black",
      "mesh": 0
    },
    {
      "matrix": [
        1,
        0,
        0,
        0,
        0,
        1,
        0,
        0,
        0,
        0,
        1,
        0,
        -48,
        0,
        -32,
        1
      ],
      "name": "purple",
      "children": [
        94
      ]
    },
    {
      "name": "black",
      "mesh": 0
    },
    {
      "matrix": [
        1,
        0,
        0,
        0,
        0,
        1,
        0,
        0,
        0,
        0,
        1,
        0,
        -48,
        0,
        -64,
        1
      ],
      "name": "purple",
      "children": [
        96
      ]
    },
    {
      "name": "black",
      "mesh": 0
    },
    {
      "matrix": [
        1,
        0,
        0,
        0,
        0,
        1,
        0,
        0,
        0,
        0,
        1,
        0,
        -48,
        0,
        -96,
        1
      ],
      "name": "purple",
      "children": [
        98
      ]
    },
    {
      "name": "black",
      "mesh": 0
    },
    {
      "matrix": [
        1,
        0,
        0,
        0,
        0,
        1,
        0,
        0,
        0,
        0,
        1,
        0,
        -48,
        0,
        -128,
        1
      ],
      "name": "purple",
      "children": [
        100
      ]
    },
    {
      "name": "black",
      "mesh": 0
    },
    {
      "matrix": [
        1,
        0,
        0,
        0,
        0,
        1,
        0,
        0,
        0,
        0,
        1,
        0,
        -16,
        0,
        96,
        1
      ],
      "name": "purple",
      "children": [
        102
      ]
    },
    {
      "name": "black",
      "mesh": 0
    },
    {
      "matrix": [
        1,
        0,
        0,
        0,
        0,
        1,
        0,
        0,
        0,
        0,
        1,
        0,
        -16,
        0,
        64,
        1
      ],
      "name": "purple",
      "children": [
        104
      ]
    },
    {
      "name": "black",
      "mesh": 0
    },
    {
      "matrix": [
        1,
        0,
        0,
        0,
        0,
        1,
        0,
        0,
        0,
        0,
        1,
        0,
        -16,
        0,
        32,
        1
      ],
      "name": "purple",
      "children": [
        106
      ]
    },
    {
      "name": "black",
      "mesh": 0
    },
    {
      "matrix": [
        1,
        0,
        0,
        0,
        0,
        1,
        0,
        0,
        0,
        0,
        1,
        0,
        -16,
        0,
        0,
        1
      ],
      "name": "purple",
      "children": [
        108
      ]
    },
    {
      "name": "black",
      "mesh": 0
    },
    {
      "matrix": [
        1,
        0,
        0,
        0,
        0,
        1,
        0,
        0,
        0,
        0,
        1,
        0,
        -16,
        0,
        -32,
        1
      ],
      "name": "purple",
      "children": [
        110
      ]
    },
    {
      "name": "black",
      "mesh": 0
    },
    {
      "matrix": [
        1,
        0,
        0,
        0,
        0,
        1,
        0,
        0,
        0,
        0,
        1,
        0,
        -16,
        0,
        -64,
        1
      ],
      "name": "purple",
      "children": [
        112
      ]
    },
    {
      "name": "black",
      "mesh": 0
    },
    {
      "matrix": [
        1,
        0,
        0,
        0,
        0,
        1,
        0,
        0,
        0,
        0,
        1,
        0,
        -16,
        0,
        -96,
        1
      ],
      "name": "purple",
      "children": [
        114
      ]
    },
    {
      "name": "black",
      "mesh": 0
    },
    {
      "matrix": [
        1,
        0,
        0,
        0,
        0,
        1,
        0,
        0,
        0,
        0,
        1,
        0,
        -16,
        0,
        -128,
        1
      ],
      "name": "purple",
      "children": [
        116
      ]
    },
    {
      "name": "black",
      "mesh": 0
    },
    {
      "matrix": [
        1,
        0,
        0,
        0,
        0,
        1,
        0,
        0,
        0,
        0,
        1,
        0,
        16,
        0,
        96,
        1
      ],
      "name": "purple",
      "children": [
        118
      ]
    },
    {
      "name": "black",
      "mesh": 0
    },
    {
      "matrix": [
        1,
        0,
        0,
        0,
        0,
        1,
        0,
        0,
        0,
        0,
        1,
        0,
        16,
        0,
        64,
        1
      ],
      "name": "purple",
      "children": [
        120
      ]
    },
    {
      "name": "black",
      "mesh": 0
    },
    {
      "matrix": [
        1,
        0,
        0,
        0,
        0,
        1,
        0,
        0,
        0,
        0,
        1,
        0,
        16,
        0,
        32,
        1
      ],
      "name": "purple",
      "children": [
        122
      ]
    },
    {
      "name": "black",
      "mesh": 0
    },
    {
      "matrix": [
        1,
        0,
        0,
        0,
        0,
        1,
        0,
        0,
        0,
        0,
        1,
        0,
        16,
        0,
        0,
        1
      ],
      "name": "purple",
      "children": [
        124
      ]
    },
    {
      "name": "black",
      "mesh": 0
    },
    {
      "matrix": [
        1,
        0,
        0,
        0,
        0,
        1,
        0,
        0,
        0,
        0,
        1,
        0,
        16,
        0,
        -32,
        1
      ],
      "name": "purple",
      "children": [
        126
      ]
    },
    {
      "name": "black",
      "mesh": 0
    },
    {
      "matrix": [
        1,
        0,
        0,
        0,
        0,
        1,
        0,
        0,
        0,
        0,
        1,
        0,
        16,
        0,
        -64,
        1
      ],
      "name": "purple",
      "children": [
        128
      ]
    },
    {
      "name": "black",
      "mesh": 0
    },
    {
      "matrix": [
        1,
        0,
        0,
        0,
        0,
        1,
        0,
        0,
        0,
        0,
        1,
        0,
        16,
        0,
        -96,
        1
      ],
      "name": "purple",
      "children": [
        130
      ]
    },
    {
      "name": "black",
      "mesh": 0
    },
    {
      "matrix": [
        1,
        0,
        0,
        0,
        0,
        1,
        0,
        0,
        0,
        0,
        1,
        0,
        16,
        0,
        -128,
        1
      ],
      "name": "purple",
      "children": [
        132
      ]
    },
    {
      "name": "black",
      "mesh": 0
    },
    {
      "matrix": [
        1,
        0,
        0,
        0,
        0,
        1,
        0,
        0,
        0,
        0,
        1,
        0,
        48,
        0,
        96,
        1
      ],
      "name": "purple",
      "children": [
        134
      ]
    },
    {
      "name": "black",
      "mesh": 0
    },
    {
      "matrix": [
        1,
        0,
        0,
        0,
        0,
        1,
        0,
        0,
        0,
        0,
        1,
        0,
        48,
        0,
        64,
        1
      ],
      "name": "purple",
      "children": [
        136
      ]
    },
    {
      "name": "black",
      "mesh": 0
    },
    {
      "matrix": [
        1,
        0,
        0,
        0,
        0,
        1,
        0,
        0,
        0,
        0,
        1,
        0,
        48,
        0,
        32,
        1
      ],
      "name": "purple",
      "children": [
        138
      ]
    },
    {
      "name": "black",
      "mesh": 0
    },
    {
      "matrix": [
        1,
        0,
        0,
        0,
        0,
        1,
        0,
        0,
        0,
        0,
        1,
        0,
        48,
        0,
        0,
        1
      ],
      "name": "purple",
      "children": [
        140
      ]
    },
    {
      "name": "black",
      "mesh": 0
    },
    {
      "matrix": [
        1,
        0,
        0,
        0,
        0,
        1,
        0,
        0,
        0,
        0,
        1,
        0,
        48,
        0,
        -32,
        1
      ],
      "name": "purple",
      "children": [
        142
      ]
    },
    {
      "name": "black",
      "mesh": 0
    },
    {
      "matrix": [
        1,
        0,
        0,
        0,
        0,
        1,
        0,
        0,
        0,
        0,
        1,
        0,
        48,
        0,
        -64,
        1
      ],
      "name": "purple",
      "children": [
        144
      ]
    },
    {
      "name": "black",
      "mesh": 0
    },
    {
      "matrix": [
        1,
        0,
        0,
        0,
        0,
        1,
        0,
        0,
        0,
        0,
        1,
        0,
        48,
        0,
        -96,
        1
      ],
      "name": "purple",
      "children": [
        146
      ]
    },
    {
      "name": "black",
      "mesh": 0
    },
    {
      "matrix": [
        1,
        0,
        0,
        0,
        0,
        1,
        0,
        0,
        0,
        0,
        1,
        0,
        48,
        0,
        -128,
        1
      ],
      "name": "purple",
      "children": [
        148
      ]
    },
    {
      "name": "black",
      "mesh": 0
    },
    {
      "matrix": [
        1,
        0,
        0,
        0,
        0,
        1,
        0,
        0,
        0,
        0,
        1,
        0,
        80,
        0,
        160,
        1
      ],
      "name": "purple",
      "children": [
        150
      ]
    },
    {
      "name": "black",
      "mesh": 0
    },
    {
      "matrix": [
        1,
        0,
        0,
        0,
        0,
        1,
        0,
        0,
        0,
        0,
        1,
        0,
        80,
        0,
        128,
        1
      ],
      "name": "purple",
      "children": [
        152
      ]
    },
    {
      "name": "black",
      "mesh": 0
    },
    {
      "matrix": [
        1,
        0,
        0,
        0,
        0,
        1,
        0,
        0,
        0,
        0,
        1,
        0,
        80,
        0,
        96,
        1
      ],
      "name": "purple",
      "children": [
        154
      ]
    },
    {
      "name": "black",
      "mesh": 0
    },
    {
      "matrix": [
        1,
        0,
        0,
        0,
        0,
        1,
        0,
        0,
        0,
        0,
        1,
        0,
        80,
        0,
        64,
        1
      ],
      "name": "purple",
      "children": [
        156
      ]
    },
    {
      "name": "black",
      "mesh": 0
    },
    {
      "matrix": [
        1,
        0,
        0,
        0,
        0,
        1,
        0,
        0,
        0,
        0,
        1,
        0,
        80,
        0,
        -64,
        1
      ],
      "name": "purple",
      "children": [
        158
      ]
    },
    {
      "name": "black",
      "mesh": 0
    },
    {
      "matrix": [
        1,
        0,
        0,
        0,
        0,
        1,
        0,
        0,
        0,
        0,
        1,
        0,
        80,
        0,
        -96,
        1
      ],
      "name": "purple",
      "children": [
        160
      ]
    },
    {
      "name": "black",
      "mesh": 0
    },
    {
      "matrix": [
        1,
        0,
        0,
        0,
        0,
        1,
        0,
        0,
        0,
        0,
        1,
        0,
        80,
        0,
        -128,
        1
      ],
      "name": "purple",
      "children": [
        162
      ]
    },
    {
      "name": "black",
      "mesh": 0
    },
    {
      "matrix": [
        1,
        0,
        0,
        0,
        0,
        1,
        0,
        0,
        0,
        0,
        1,
        0,
        80,
        0,
        -160,
        1
      ],
      "name": "purple",
      "children": [
        164
      ]
    },
    {
      "name": "black",
      "mesh": 0
    },
    {
      "matrix": [
        1,
        0,
        0,
        0,
        0,
        1,
        0,
        0,
        0,
        0,
        1,
        0,
        80,
        0,
        -192,
        1
      ],
      "name": "purple",
      "children": [
        166
      ]
    },
    {
      "name": "black",
      "mesh": 0
    },
    {
      "matrix": [
        1,
        0,
        0,
        0,
        0,
        1,
        0,
        0,
        0,
        0,
        1,
        0,
        112,
        0,
        160,
        1
      ],
      "name": "purple",
      "children": [
        168
      ]
    },
    {
      "name": "black",
      "mesh": 0
    },
    {
      "matrix": [
        1,
        0,
        0,
        0,
        0,
        1,
        0,
        0,
        0,
        0,
        1,
        0,
        112,
        0,
        128,
        1
      ],
      "name": "purple",
      "children": [
        170
      ]
    },
    {
      "name": "black",
      "mesh": 0
    },
    {
      "matrix": [
        1,
        0,
        0,
        0,
        0,
        1,
        0,
        0,
        0,
        0,
        1,
        0,
        112,
        0,
        96,
        1
      ],
      "name": "purple",
      "children": [
        172
      ]
    },
    {
      "name": "black",
      "mesh": 0
    },
    {
      "matrix": [
        1,
        0,
        0,
        0,
        0,
        1,
        0,
        0,
        0,
        0,
        1,
        0,
        112,
        0,
        64,
        1
      ],
      "name": "purple",
      "children": [
        174
      ]
    },
    {
      "name": "black",
      "mesh": 0
    },
    {
      "matrix": [
        1,
        0,
        0,
        0,
        0,
        1,
        0,
        0,
        0,
        0,
        1,
        0,
        112,
        0,
        -64,
        1
      ],
      "name": "purple",
      "children": [
        176
      ]
    },
    {
      "name": "black",
      "mesh": 0
    },
    {
      "matrix": [
        1,
        0,
        0,
        0,
        0,
        1,
        0,
        0,
        0,
        0,
        1,
        0,
        112,
        0,
        -96,
        1
      ],
      "name": "purple",
      "children": [
        178
      ]
    },
    {
      "name": "black",
      "mesh": 0
    },
    {
      "matrix": [
        1,
        0,
        0,
        0,
        0,
        1,
        0,
        0,
        0,
        0,
        1,
        0,
        112,
        0,
        -128,
        1
      ],
      "name": "purple",
      "children": [
        180
      ]
    },
    {
      "name": "black",
      "mesh": 0
    },
    {
      "matrix": [
        1,
        0,
        0,
        0,
        0,
        1,
        0,
        0,
        0,
        0,
        1,
        0,
        144,
        0,
        96,
        1
      ],
      "name": "purple",
      "children": [
        182
      ]
    },
    {
      "name": "black",
      "mesh": 0
    },
    {
      "matrix": [
        1,
        0,
        0,
        0,
        0,
        1,
        0,
        0,
        0,
        0,
        1,
        0,
        144,
        0,
        64,
        1
      ],
      "name": "purple",
      "children": [
        184
      ]
    },
    {
      "name": "black",
      "mesh": 0
    },
    {
      "matrix": [
        1,
        0,
        0,
        0,
        0,
        1,
        0,
        0,
        0,
        0,
        1,
        0,
        144,
        0,
        32,
        1
      ],
      "name": "purple",
      "children": [
        186
      ]
    },
    {
      "name": "black",
      "mesh": 0
    },
    {
      "matrix": [
        1,
        0,
        0,
        0,
        0,
        1,
        0,
        0,
        0,
        0,
        1,
        0,
        144,
        0,
        0,
        1
      ],
      "name": "purple",
      "children": [
        188
      ]
    },
    {
      "name": "black",
      "mesh": 0
    },
    {
      "matrix": [
        1,
        0,
        0,
        0,
        0,
        1,
        0,
        0,
        0,
        0,
        1,
        0,
        144,
        0,
        -32,
        1
      ],
      "name": "purple",
      "children": [
        190
      ]
    },
    {
      "name": "black",
      "mesh": 0
    },
    {
      "matrix": [
        1,
        0,
        0,
        0,
        0,
        1,
        0,
        0,
        0,
        0,
        1,
        0,
        144,
        0,
        -64,
        1
      ],
      "name": "purple",
      "children": [
        192
      ]
    },
    {
      "name": "black",
      "mesh": 0
    },
    {
      "matrix": [
        1,
        0,
        0,
        0,
        0,
        1,
        0,
        0,
        0,
        0,
        1,
        0,
        144,
        0,
        -96,
        1
      ],
      "name": "purple",
      "children": [
        194
      ]
    },
    {
      "name": "black",
      "mesh": 0
    },
    {
      "matrix": [
        1,
        0,
        0,
        0,
        0,
        1,
        0,
        0,
        0,
        0,
        1,
        0,
        176,
        0,
        224,
        1
      ],
      "name": "purple",
      "children": [
        196
      ]
    },
    {
      "name": "black",
      "mesh": 0
    },
    {
      "matrix": [
        1,
        0,
        0,
        0,
        0,
        1,
        0,
        0,
        0,
        0,
        1,
        0,
        176,
        0,
        96,
        1
      ],
      "name": "purple",
      "children": [
        198
      ]
    },
    {
      "name": "black",
      "mesh": 0
    },
    {
      "matrix": [
        1,
        0,
        0,
        0,
        0,
        1,
        0,
        0,
        0,
        0,
        1,
        0,
        176,
        0,
        64,
        1
      ],
      "name": "purple",
      "children": [
        200
      ]
    },
    {
      "name": "black",
      "mesh": 0
    },
    {
      "matrix": [
        1,
        0,
        0,
        0,
        0,
        1,
        0,
        0,
        0,
        0,
        1,
        0,
        176,
        0,
        32,
        1
      ],
      "name": "purple",
      "children": [
        202
      ]
    },
    {
      "name": "black",
      "mesh": 0
    },
    {
      "matrix": [
        1,
        0,
        0,
        0,
        0,
        1,
        0,
        0,
        0,
        0,
        1,
        0,
        176,
        0,
        0,
        1
      ],
      "name": "purple",
      "children": [
        204
      ]
    },
    {
      "name": "black",
      "mesh": 0
    },
    {
      "matrix": [
        1,
        0,
        0,
        0,
        0,
        1,
        0,
        0,
        0,
        0,
        1,
        0,
        176,
        0,
        -32,
        1
      ],
      "name": "purple",
      "children": [
        206
      ]
    },
    {
      "name": "black",
      "mesh": 0
    },
    {
      "matrix": [
        1,
        0,
        0,
        0,
        0,
        1,
        0,
        0,
        0,
        0,
        1,
        0,
        176,
        0,
        -64,
        1
      ],
      "name": "purple",
      "children": [
        208
      ]
    },
    {
      "name": "black",
      "mesh": 0
    },
    {
      "matrix": [
        1,
        0,
        0,
        0,
        0,
        1,
        0,
        0,
        0,
        0,
        1,
        0,
        176,
        0,
        -160,
        1
      ],
      "name": "purple",
      "children": [
        210
      ]
    },
    {
      "name": "black",
      "mesh": 0
    },
    {
      "matrix": [
        1,
        0,
        0,
        0,
        0,
        1,
        0,
        0,
        0,
        0,
        1,
        0,
        176,
        0,
        -224,
        1
      ],
      "name": "purple",
      "children": [
        212
      ]
    },
    {
      "name": "black",
      "mesh": 0
    },
    {
      "matrix": [
        1,
        0,
        0,
        0,
        0,
        1,
        0,
        0,
        0,
        0,
        1,
        0,
        208,
        0,
        32,
        1
      ],
      "name": "purple",
      "children": [
        214
      ]
    },
    {
      "name": "black",
      "mesh": 0
    },
    {
      "matrix": [
        1,
        0,
        0,
        0,
        0,
        1,
        0,
        0,
        0,
        0,
        1,
        0,
        208,
        0,
        -128,
        1
      ],
      "name": "purple",
      "children": [
        216
      ]
    },
    {
      "name": "black",
      "mesh": 0
    },
    {
      "matrix": [
        1,
        0,
        0,
        0,
        0,
        1,
        0,
        0,
        0,
        0,
        1,
        0,
        208,
        0,
        -160,
        1
      ],
      "name": "purple",
      "children": [
        218
      ]
    },
    {
      "name": "black",
      "mesh": 0
    },
    {
      "matrix": [
        1,
        0,
        0,
        0,
        0,
        1,
        0,
        0,
        0,
        0,
        1,
        0,
        240,
        0,
        32,
        1
      ],
      "name": "purple",
      "children": [
        220
      ]
    },
    {
      "name": "black",
      "mesh": 0
    },
    {
      "matrix": [
        1,
        0,
        0,
        0,
        0,
        1,
        0,
        0,
        0,
        0,
        1,
        0,
        272,
        0,
        0,
        1
      ],
      "name": "purple",
      "children": [
        222
      ]
    },
    {
      "name": "black",
      "mesh": 0
    },
    {
      "matrix": [
        1,
        0,
        0,
        0,
        0,
        1,
        0,
        0,
        0,
        0,
        1,
        0,
        272,
        0,
        -32,
        1
      ],
      "name": "purple",
      "children": [
        224
      ]
    },
    {
      "name": "black",
      "mesh": 0
    },
    {
      "matrix": [
        1,
        0,
        0,
        0,
        0,
        1,
        0,
        0,
        0,
        0,
        1,
        0,
        272,
        0,
        -64,
        1
      ],
      "name": "purple",
      "children": [
        226
      ]
    },
    {
      "name": "black",
      "mesh": 0
    },
    {
      "matrix": [
        1,
        0,
        0,
        0,
        0,
        1,
        0,
        0,
        0,
        0,
        1,
        0,
        272,
        0,
        -96,
        1
      ],
      "name": "purple",
      "children": [
        228
      ]
    },
    {
      "matrix": [
        1,
        0,
        0,
        0,
        0,
        1,
        0,
        0,
        0,
        0,
        1,
        0,
        304,
        0,
        -256,
        1
      ],
      "name": "Purple",
      "children": [
        7,
        9,
        11,
        13,
        15,
        17,
        19,
        21,
        23,
        25,
        27,
        29,
        31,
        33,
        35,
        37,
        39,
        41,
        43,
        45,
        47,
        49,
        51,
        53,
        55,
        57,
        59,
        61,
        63,
        65,
        67,
        69,
        71,
        73,
        75,
        77,
        79,
        81,
        83,
        85,
        87,
        89,
        91,
        93,
        95,
        97,
        99,
        101,
        103,
        105,
        107,
        109,
        111,
        113,
        115,
        117,
        119,
        121,
        123,
        125,
        127,
        129,
        131,
        133,
        135,
        137,
        139,
        141,
        143,
        145,
        147,
        149,
        151,
        153,
        155,
        157,
        159,
        161,
        163,
        165,
        167,
        169,
        171,
        173,
        175,
        177,
        179,
        181,
        183,
        185,
        187,
        189,
        191,
        193,
        195,
        197,
        199,
        201,
        203,
        205,
        207,
        209,
        211,
        213,
        215,
        217,
        219,
        221,
        223,
        225,
        227,
        229
      ]
    },
    {
      "name": "black",
      "mesh": 1
    },
    {
      "matrix": [
        1,
        0,
        0,
        0,
        0,
        1,
        0,
        0,
        0,
        0,
        1,
        0,
        -304,
        0,
        32,
        1
      ],
      "name": "black",
      "children": [
        231
      ]
    },
    {
      "name": "black",
      "mesh": 1
    },
    {
      "matrix": [
        1,
        0,
        0,
        0,
        0,
        1,
        0,
        0,
        0,
        0,
        1,
        0,
        -272,
        0,
        -128,
        1
      ],
      "name": "black",
      "children": [
        233
      ]
    },
    {
      "name": "black",
      "mesh": 1
    },
    {
      "matrix": [
        1,
        0,
        0,
        0,
        0,
        1,
        0,
        0,
        0,
        0,
        1,
        0,
        -240,
        0,
        64,
        1
      ],
      "name": "black",
      "children": [
        235
      ]
    },
    {
      "name": "black",
      "mesh": 1
    },
    {
      "matrix": [
        1,
        0,
        0,
        0,
        0,
        1,
        0,
        0,
        0,
        0,
        1,
        0,
        -240,
        0,
        0,
        1
      ],
      "name": "black",
      "children": [
        237
      ]
    },
    {
      "name": "black",
      "mesh": 1
    },
    {
      "matrix": [
        1,
        0,
        0,
        0,
        0,
        1,
        0,
        0,
        0,
        0,
        1,
        0,
        -240,
        0,
        -32,
        1
      ],
      "name": "black",
      "children": [
        239
      ]
    },
    {
      "name": "black",
      "mesh": 1
    },
    {
      "matrix": [
        1,
        0,
        0,
        0,
        0,
        1,
        0,
        0,
        0,
        0,
        1,
        0,
        -240,
        0,
        -64,
        1
      ],
      "name": "black",
      "children": [
        241
      ]
    },
    {
      "name": "black",
      "mesh": 1
    },
    {
      "matrix": [
        1,
        0,
        0,
        0,
        0,
        1,
        0,
        0,
        0,
        0,
        1,
        0,
        -240,
        0,
        -96,
        1
      ],
      "name": "black",
      "children": [
        243
      ]
    },
    {
      "name": "black",
      "mesh": 1
    },
    {
      "matrix": [
        1,
        0,
        0,
        0,
        0,
        1,
        0,
        0,
        0,
        0,
        1,
        0,
        -240,
        0,
        -128,
        1
      ],
      "name": "black",
      "children": [
        245
      ]
    },
    {
      "name": "black",
      "mesh": 1
    },
    {
      "matrix": [
        1,
        0,
        0,
        0,
        0,
        1,
        0,
        0,
        0,
        0,
        1,
        0,
        -240,
        0,
        -160,
        1
      ],
      "name": "black",
      "children": [
        247
      ]
    },
    {
      "name": "black",
      "mesh": 1
    },
    {
      "matrix": [
        1,
        0,
        0,
        0,
        0,
        1,
        0,
        0,
        0,
        0,
        1,
        0,
        -240,
        0,
        -192,
        1
      ],
      "name": "black",
      "children": [
        249
      ]
    },
    {
      "name": "black",
      "mesh": 1
    },
    {
      "matrix": [
        1,
        0,
        0,
        0,
        0,
        1,
        0,
        0,
        0,
        0,
        1,
        0,
        -208,
        0,
        256,
        1
      ],
      "name": "black",
      "children": [
        251
      ]
    },
    {
      "name": "black",
      "mesh": 1
    },
    {
      "matrix": [
        1,
        0,
        0,
        0,
        0,
        1,
        0,
        0,
        0,
        0,
        1,
        0,
        -208,
        0,
        224,
        1
      ],
      "name": "black",
      "children": [
        253
      ]
    },
    {
      "name": "black",
      "mesh": 1
    },
    {
      "matrix": [
        1,
        0,
        0,
        0,
        0,
        1,
        0,
        0,
        0,
        0,
        1,
        0,
        -208,
        0,
        192,
        1
      ],
      "name": "black",
      "children": [
        255
      ]
    },
    {
      "name": "black",
      "mesh": 1
    },
    {
      "matrix": [
        1,
        0,
        0,
        0,
        0,
        1,
        0,
        0,
        0,
        0,
        1,
        0,
        -208,
        0,
        128,
        1
      ],
      "name": "black",
      "children": [
        257
      ]
    },
    {
      "name": "black",
      "mesh": 1
    },
    {
      "matrix": [
        1,
        0,
        0,
        0,
        0,
        1,
        0,
        0,
        0,
        0,
        1,
        0,
        -208,
        0,
        96,
        1
      ],
      "name": "black",
      "children": [
        259
      ]
    },
    {
      "name": "black",
      "mesh": 1
    },
    {
      "matrix": [
        1,
        0,
        0,
        0,
        0,
        1,
        0,
        0,
        0,
        0,
        1,
        0,
        -208,
        0,
        64,
        1
      ],
      "name": "black",
      "children": [
        261
      ]
    },
    {
      "name": "black",
      "mesh": 1
    },
    {
      "matrix": [
        1,
        0,
        0,
        0,
        0,
        1,
        0,
        0,
        0,
        0,
        1,
        0,
        -208,
        0,
        0,
        1
      ],
      "name": "black",
      "children": [
        263
      ]
    },
    {
      "name": "black",
      "mesh": 1
    },
    {
      "matrix": [
        1,
        0,
        0,
        0,
        0,
        1,
        0,
        0,
        0,
        0,
        1,
        0,
        -208,
        0,
        -32,
        1
      ],
      "name": "black",
      "children": [
        265
      ]
    },
    {
      "name": "black",
      "mesh": 1
    },
    {
      "matrix": [
        1,
        0,
        0,
        0,
        0,
        1,
        0,
        0,
        0,
        0,
        1,
        0,
        -208,
        0,
        -64,
        1
      ],
      "name": "black",
      "children": [
        267
      ]
    },
    {
      "name": "black",
      "mesh": 1
    },
    {
      "matrix": [
        1,
        0,
        0,
        0,
        0,
        1,
        0,
        0,
        0,
        0,
        1,
        0,
        -208,
        0,
        -96,
        1
      ],
      "name": "black",
      "children": [
        269
      ]
    },
    {
      "name": "black",
      "mesh": 1
    },
    {
      "matrix": [
        1,
        0,
        0,
        0,
        0,
        1,
        0,
        0,
        0,
        0,
        1,
        0,
        -208,
        0,
        -192,
        1
      ],
      "name": "black",
      "children": [
        271
      ]
    },
    {
      "name": "black",
      "mesh": 1
    },
    {
      "matrix": [
        1,
        0,
        0,
        0,
        0,
        1,
        0,
        0,
        0,
        0,
        1,
        0,
        -208,
        0,
        -224,
        1
      ],
      "name": "black",
      "children": [
        273
      ]
    },
    {
      "name": "black",
      "mesh": 1
    },
    {
      "matrix": [
        1,
        0,
        0,
        0,
        0,
        1,
        0,
        0,
        0,
        0,
        1,
        0,
        -208,
        0,
        -256,
        1
      ],
      "name": "black",
      "children": [
        275
      ]
    },
    {
      "name": "black",
      "mesh": 1
    },
    {
      "matrix": [
        1,
        0,
        0,
        0,
        0,
        1,
        0,
        0,
        0,
        0,
        1,
        0,
        -176,
        0,
        256,
        1
      ],
      "name": "black",
      "children": [
        277
      ]
    },
    {
      "name": "black",
      "mesh": 1
    },
    {
      "matrix": [
        1,
        0,
        0,
        0,
        0,
        1,
        0,
        0,
        0,
        0,
        1,
        0,
        -176,
        0,
        192,
        1
      ],
      "name": "black",
      "children": [
        279
      ]
    },
    {
      "name": "black",
      "mesh": 1
    },
    {
      "matrix": [
        1,
        0,
        0,
        0,
        0,
        1,
        0,
        0,
        0,
        0,
        1,
        0,
        -176,
        0,
        128,
        1
      ],
      "name": "black",
      "children": [
        281
      ]
    },
    {
      "name": "black",
      "mesh": 1
    },
    {
      "matrix": [
        1,
        0,
        0,
        0,
        0,
        1,
        0,
        0,
        0,
        0,
        1,
        0,
        -176,
        0,
        -96,
        1
      ],
      "name": "black",
      "children": [
        283
      ]
    },
    {
      "name": "black",
      "mesh": 1
    },
    {
      "matrix": [
        1,
        0,
        0,
        0,
        0,
        1,
        0,
        0,
        0,
        0,
        1,
        0,
        -176,
        0,
        -128,
        1
      ],
      "name": "black",
      "children": [
        285
      ]
    },
    {
      "name": "black",
      "mesh": 1
    },
    {
      "matrix": [
        1,
        0,
        0,
        0,
        0,
        1,
        0,
        0,
        0,
        0,
        1,
        0,
        -176,
        0,
        -192,
        1
      ],
      "name": "black",
      "children": [
        287
      ]
    },
    {
      "name": "black",
      "mesh": 1
    },
    {
      "matrix": [
        1,
        0,
        0,
        0,
        0,
        1,
        0,
        0,
        0,
        0,
        1,
        0,
        -176,
        0,
        -256,
        1
      ],
      "name": "black",
      "children": [
        289
      ]
    },
    {
      "name": "black",
      "mesh": 1
    },
    {
      "matrix": [
        1,
        0,
        0,
        0,
        0,
        1,
        0,
        0,
        0,
        0,
        1,
        0,
        -144,
        0,
        256,
        1
      ],
      "name": "black",
      "children": [
        291
      ]
    },
    {
      "name": "black",
      "mesh": 1
    },
    {
      "matrix": [
        1,
        0,
        0,
        0,
        0,
        1,
        0,
        0,
        0,
        0,
        1,
        0,
        -144,
        0,
        224,
        1
      ],
      "name": "black",
      "children": [
        293
      ]
    },
    {
      "name": "black",
      "mesh": 1
    },
    {
      "matrix": [
        1,
        0,
        0,
        0,
        0,
        1,
        0,
        0,
        0,
        0,
        1,
        0,
        -144,
        0,
        192,
        1
      ],
      "name": "black",
      "children": [
        295
      ]
    },
    {
      "name": "black",
      "mesh": 1
    },
    {
      "matrix": [
        1,
        0,
        0,
        0,
        0,
        1,
        0,
        0,
        0,
        0,
        1,
        0,
        -144,
        0,
        160,
        1
      ],
      "name": "black",
      "children": [
        297
      ]
    },
    {
      "name": "black",
      "mesh": 1
    },
    {
      "matrix": [
        1,
        0,
        0,
        0,
        0,
        1,
        0,
        0,
        0,
        0,
        1,
        0,
        -144,
        0,
        128,
        1
      ],
      "name": "black",
      "children": [
        299
      ]
    },
    {
      "name": "black",
      "mesh": 1
    },
    {
      "matrix": [
        1,
        0,
        0,
        0,
        0,
        1,
        0,
        0,
        0,
        0,
        1,
        0,
        -144,
        0,
        -128,
        1
      ],
      "name": "black",
      "children": [
        301
      ]
    },
    {
      "name": "black",
      "mesh": 1
    },
    {
      "matrix": [
        1,
        0,
        0,
        0,
        0,
        1,
        0,
        0,
        0,
        0,
        1,
        0,
        -144,
        0,
        -160,
        1
      ],
      "name": "black",
      "children": [
        303
      ]
    },
    {
      "name": "black",
      "mesh": 1
    },
    {
      "matrix": [
        1,
        0,
        0,
        0,
        0,
        1,
        0,
        0,
        0,
        0,
        1,
        0,
        -144,
        0,
        -192,
        1
      ],
      "name": "black",
      "children": [
        305
      ]
    },
    {
      "name": "black",
      "mesh": 1
    },
    {
      "matrix": [
        1,
        0,
        0,
        0,
        0,
        1,
        0,
        0,
        0,
        0,
        1,
        0,
        -144,
        0,
        -224,
        1
      ],
      "name": "black",
      "children": [
        307
      ]
    },
    {
      "name": "black",
      "mesh": 1
    },
    {
      "matrix": [
        1,
        0,
        0,
        0,
        0,
        1,
        0,
        0,
        0,
        0,
        1,
        0,
        -144,
        0,
        -256,
        1
      ],
      "name": "black",
      "children": [
        309
      ]
    },
    {
      "name": "black",
      "mesh": 1
    },
    {
      "matrix": [
        1,
        0,
        0,
        0,
        0,
        1,
        0,
        0,
        0,
        0,
        1,
        0,
        -112,
        0,
        192,
        1
      ],
      "name": "black",
      "children": [
        311
      ]
    },
    {
      "name": "black",
      "mesh": 1
    },
    {
      "matrix": [
        1,
        0,
        0,
        0,
        0,
        1,
        0,
        0,
        0,
        0,
        1,
        0,
        -112,
        0,
        32,
        1
      ],
      "name": "black",
      "children": [
        313
      ]
    },
    {
      "name": "black",
      "mesh": 1
    },
    {
      "matrix": [
        1,
        0,
        0,
        0,
        0,
        1,
        0,
        0,
        0,
        0,
        1,
        0,
        -112,
        0,
        0,
        1
      ],
      "name": "black",
      "children": [
        315
      ]
    },
    {
      "name": "black",
      "mesh": 1
    },
    {
      "matrix": [
        1,
        0,
        0,
        0,
        0,
        1,
        0,
        0,
        0,
        0,
        1,
        0,
        -112,
        0,
        -32,
        1
      ],
      "name": "black",
      "children": [
        317
      ]
    },
    {
      "name": "black",
      "mesh": 1
    },
    {
      "matrix": [
        1,
        0,
        0,
        0,
        0,
        1,
        0,
        0,
        0,
        0,
        1,
        0,
        -112,
        0,
        -160,
        1
      ],
      "name": "black",
      "children": [
        319
      ]
    },
    {
      "name": "black",
      "mesh": 1
    },
    {
      "matrix": [
        1,
        0,
        0,
        0,
        0,
        1,
        0,
        0,
        0,
        0,
        1,
        0,
        -112,
        0,
        -192,
        1
      ],
      "name": "black",
      "children": [
        321
      ]
    },
    {
      "name": "black",
      "mesh": 1
    },
    {
      "matrix": [
        1,
        0,
        0,
        0,
        0,
        1,
        0,
        0,
        0,
        0,
        1,
        0,
        -112,
        0,
        -224,
        1
      ],
      "name": "black",
      "children": [
        323
      ]
    },
    {
      "name": "black",
      "mesh": 1
    },
    {
      "matrix": [
        1,
        0,
        0,
        0,
        0,
        1,
        0,
        0,
        0,
        0,
        1,
        0,
        -80,
        0,
        192,
        1
      ],
      "name": "black",
      "children": [
        325
      ]
    },
    {
      "name": "black",
      "mesh": 1
    },
    {
      "matrix": [
        1,
        0,
        0,
        0,
        0,
        1,
        0,
        0,
        0,
        0,
        1,
        0,
        -80,
        0,
        32,
        1
      ],
      "name": "black",
      "children": [
        327
      ]
    },
    {
      "name": "black",
      "mesh": 1
    },
    {
      "matrix": [
        1,
        0,
        0,
        0,
        0,
        1,
        0,
        0,
        0,
        0,
        1,
        0,
        -80,
        0,
        0,
        1
      ],
      "name": "black",
      "children": [
        329
      ]
    },
    {
      "name": "black",
      "mesh": 1
    },
    {
      "matrix": [
        1,
        0,
        0,
        0,
        0,
        1,
        0,
        0,
        0,
        0,
        1,
        0,
        -80,
        0,
        -32,
        1
      ],
      "name": "black",
      "children": [
        331
      ]
    },
    {
      "name": "black",
      "mesh": 1
    },
    {
      "matrix": [
        1,
        0,
        0,
        0,
        0,
        1,
        0,
        0,
        0,
        0,
        1,
        0,
        -80,
        0,
        -224,
        1
      ],
      "name": "black",
      "children": [
        333
      ]
    },
    {
      "name": "black",
      "mesh": 1
    },
    {
      "matrix": [
        1,
        0,
        0,
        0,
        0,
        1,
        0,
        0,
        0,
        0,
        1,
        0,
        -48,
        0,
        192,
        1
      ],
      "name": "black",
      "children": [
        335
      ]
    },
    {
      "name": "black",
      "mesh": 1
    },
    {
      "matrix": [
        1,
        0,
        0,
        0,
        0,
        1,
        0,
        0,
        0,
        0,
        1,
        0,
        -48,
        0,
        160,
        1
      ],
      "name": "black",
      "children": [
        337
      ]
    },
    {
      "name": "black",
      "mesh": 1
    },
    {
      "matrix": [
        1,
        0,
        0,
        0,
        0,
        1,
        0,
        0,
        0,
        0,
        1,
        0,
        -48,
        0,
        128,
        1
      ],
      "name": "black",
      "children": [
        339
      ]
    },
    {
      "name": "black",
      "mesh": 1
    },
    {
      "matrix": [
        1,
        0,
        0,
        0,
        0,
        1,
        0,
        0,
        0,
        0,
        1,
        0,
        -48,
        0,
        -160,
        1
      ],
      "name": "black",
      "children": [
        341
      ]
    },
    {
      "name": "black",
      "mesh": 1
    },
    {
      "matrix": [
        1,
        0,
        0,
        0,
        0,
        1,
        0,
        0,
        0,
        0,
        1,
        0,
        -48,
        0,
        -192,
        1
      ],
      "name": "black",
      "children": [
        343
      ]
    },
    {
      "name": "black",
      "mesh": 1
    },
    {
      "matrix": [
        1,
        0,
        0,
        0,
        0,
        1,
        0,
        0,
        0,
        0,
        1,
        0,
        -48,
        0,
        -224,
        1
      ],
      "name": "black",
      "children": [
        345
      ]
    },
    {
      "name": "black",
      "mesh": 1
    },
    {
      "matrix": [
        1,
        0,
        0,
        0,
        0,
        1,
        0,
        0,
        0,
        0,
        1,
        0,
        -16,
        0,
        128,
        1
      ],
      "name": "black",
      "children": [
        347
      ]
    },
    {
      "name": "black",
      "mesh": 1
    },
    {
      "matrix": [
        1,
        0,
        0,
        0,
        0,
        1,
        0,
        0,
        0,
        0,
        1,
        0,
        -16,
        0,
        -160,
        1
      ],
      "name": "black",
      "children": [
        349
      ]
    },
    {
      "name": "black",
      "mesh": 1
    },
    {
      "matrix": [
        1,
        0,
        0,
        0,
        0,
        1,
        0,
        0,
        0,
        0,
        1,
        0,
        16,
        0,
        128,
        1
      ],
      "name": "black",
      "children": [
        351
      ]
    },
    {
      "name": "black",
      "mesh": 1
    },
    {
      "matrix": [
        1,
        0,
        0,
        0,
        0,
        1,
        0,
        0,
        0,
        0,
        1,
        0,
        16,
        0,
        -160,
        1
      ],
      "name": "black",
      "children": [
        353
      ]
    },
    {
      "name": "black",
      "mesh": 1
    },
    {
      "matrix": [
        1,
        0,
        0,
        0,
        0,
        1,
        0,
        0,
        0,
        0,
        1,
        0,
        48,
        0,
        192,
        1
      ],
      "name": "black",
      "children": [
        355
      ]
    },
    {
      "name": "black",
      "mesh": 1
    },
    {
      "matrix": [
        1,
        0,
        0,
        0,
        0,
        1,
        0,
        0,
        0,
        0,
        1,
        0,
        48,
        0,
        160,
        1
      ],
      "name": "black",
      "children": [
        357
      ]
    },
    {
      "name": "black",
      "mesh": 1
    },
    {
      "matrix": [
        1,
        0,
        0,
        0,
        0,
        1,
        0,
        0,
        0,
        0,
        1,
        0,
        48,
        0,
        128,
        1
      ],
      "name": "black",
      "children": [
        359
      ]
    },
    {
      "name": "black",
      "mesh": 1
    },
    {
      "matrix": [
        1,
        0,
        0,
        0,
        0,
        1,
        0,
        0,
        0,
        0,
        1,
        0,
        48,
        0,
        -160,
        1
      ],
      "name": "black",
      "children": [
        361
      ]
    },
    {
      "name": "black",
      "mesh": 1
    },
    {
      "matrix": [
        1,
        0,
        0,
        0,
        0,
        1,
        0,
        0,
        0,
        0,
        1,
        0,
        48,
        0,
        -192,
        1
      ],
      "name": "black",
      "children": [
        363
      ]
    },
    {
      "name": "black",
      "mesh": 1
    },
    {
      "matrix": [
        1,
        0,
        0,
        0,
        0,
        1,
        0,
        0,
        0,
        0,
        1,
        0,
        48,
        0,
        -224,
        1
      ],
      "name": "black",
      "children": [
        365
      ]
    },
    {
      "name": "black",
      "mesh": 1
    },
    {
      "matrix": [
        1,
        0,
        0,
        0,
        0,
        1,
        0,
        0,
        0,
        0,
        1,
        0,
        80,
        0,
        192,
        1
      ],
      "name": "black ",
      "children": [
        367
      ]
    },
    {
      "name": "black",
      "mesh": 1
    },
    {
      "matrix": [
        1,
        0,
        0,
        0,
        0,
        1,
        0,
        0,
        0,
        0,
        1,
        0,
        80,
        0,
        32,
        1
      ],
      "name": "black",
      "children": [
        369
      ]
    },
    {
      "name": "black",
      "mesh": 1
    },
    {
      "matrix": [
        1,
        0,
        0,
        0,
        0,
        1,
        0,
        0,
        0,
        0,
        1,
        0,
        80,
        0,
        0,
        1
      ],
      "name": "black",
      "children": [
        371
      ]
    },
    {
      "name": "black",
      "mesh": 1
    },
    {
      "matrix": [
        1,
        0,
        0,
        0,
        0,
        1,
        0,
        0,
        0,
        0,
        1,
        0,
        80,
        0,
        -32,
        1
      ],
      "name": "black",
      "children": [
        373
      ]
    },
    {
      "name": "black",
      "mesh": 1
    },
    {
      "matrix": [
        1,
        0,
        0,
        0,
        0,
        1,
        0,
        0,
        0,
        0,
        1,
        0,
        80,
        0,
        -224,
        1
      ],
      "name": "black",
      "children": [
        375
      ]
    },
    {
      "name": "black",
      "mesh": 1
    },
    {
      "matrix": [
        1,
        0,
        0,
        0,
        0,
        1,
        0,
        0,
        0,
        0,
        1,
        0,
        112,
        0,
        192,
        1
      ],
      "name": "black",
      "children": [
        377
      ]
    },
    {
      "name": "black",
      "mesh": 1
    },
    {
      "matrix": [
        1,
        0,
        0,
        0,
        0,
        1,
        0,
        0,
        0,
        0,
        1,
        0,
        112,
        0,
        32,
        1
      ],
      "name": "black",
      "children": [
        379
      ]
    },
    {
      "name": "black",
      "mesh": 1
    },
    {
      "matrix": [
        1,
        0,
        0,
        0,
        0,
        1,
        0,
        0,
        0,
        0,
        1,
        0,
        112,
        0,
        0,
        1
      ],
      "name": "black",
      "children": [
        381
      ]
    },
    {
      "name": "black",
      "mesh": 1
    },
    {
      "matrix": [
        1,
        0,
        0,
        0,
        0,
        1,
        0,
        0,
        0,
        0,
        1,
        0,
        112,
        0,
        -32,
        1
      ],
      "name": "black",
      "children": [
        383
      ]
    },
    {
      "name": "black",
      "mesh": 1
    },
    {
      "matrix": [
        1,
        0,
        0,
        0,
        0,
        1,
        0,
        0,
        0,
        0,
        1,
        0,
        112,
        0,
        -160,
        1
      ],
      "name": "black",
      "children": [
        385
      ]
    },
    {
      "name": "black",
      "mesh": 1
    },
    {
      "matrix": [
        1,
        0,
        0,
        0,
        0,
        1,
        0,
        0,
        0,
        0,
        1,
        0,
        112,
        0,
        -192,
        1
      ],
      "name": "black",
      "children": [
        387
      ]
    },
    {
      "name": "black",
      "mesh": 1
    },
    {
      "matrix": [
        1,
        0,
        0,
        0,
        0,
        1,
        0,
        0,
        0,
        0,
        1,
        0,
        112,
        0,
        -224,
        1
      ],
      "name": "black",
      "children": [
        389
      ]
    },
    {
      "name": "black",
      "mesh": 1
    },
    {
      "matrix": [
        1,
        0,
        0,
        0,
        0,
        1,
        0,
        0,
        0,
        0,
        1,
        0,
        144,
        0,
        256,
        1
      ],
      "name": "black",
      "children": [
        391
      ]
    },
    {
      "name": "black",
      "mesh": 1
    },
    {
      "matrix": [
        1,
        0,
        0,
        0,
        0,
        1,
        0,
        0,
        0,
        0,
        1,
        0,
        144,
        0,
        224,
        1
      ],
      "name": "black",
      "children": [
        393
      ]
    },
    {
      "name": "black",
      "mesh": 1
    },
    {
      "matrix": [
        1,
        0,
        0,
        0,
        0,
        1,
        0,
        0,
        0,
        0,
        1,
        0,
        144,
        0,
        192,
        1
      ],
      "name": "black",
      "children": [
        395
      ]
    },
    {
      "name": "black",
      "mesh": 1
    },
    {
      "matrix": [
        1,
        0,
        0,
        0,
        0,
        1,
        0,
        0,
        0,
        0,
        1,
        0,
        144,
        0,
        160,
        1
      ],
      "name": "black",
      "children": [
        397
      ]
    },
    {
      "name": "black",
      "mesh": 1
    },
    {
      "matrix": [
        1,
        0,
        0,
        0,
        0,
        1,
        0,
        0,
        0,
        0,
        1,
        0,
        144,
        0,
        128,
        1
      ],
      "name": "black",
      "children": [
        399
      ]
    },
    {
      "name": "black",
      "mesh": 1
    },
    {
      "matrix": [
        1,
        0,
        0,
        0,
        0,
        1,
        0,
        0,
        0,
        0,
        1,
        0,
        144,
        0,
        -128,
        1
      ],
      "name": "black",
      "children": [
        401
      ]
    },
    {
      "name": "black",
      "mesh": 1
    },
    {
      "matrix": [
        1,
        0,
        0,
        0,
        0,
        1,
        0,
        0,
        0,
        0,
        1,
        0,
        144,
        0,
        -160,
        1
      ],
      "name": "black",
      "children": [
        403
      ]
    },
    {
      "name": "black",
      "mesh": 1
    },
    {
      "matrix": [
        1,
        0,
        0,
        0,
        0,
        1,
        0,
        0,
        0,
        0,
        1,
        0,
        144,
        0,
        -192,
        1
      ],
      "name": "black",
      "children": [
        405
      ]
    },
    {
      "name": "black",
      "mesh": 1
    },
    {
      "matrix": [
        1,
        0,
        0,
        0,
        0,
        1,
        0,
        0,
        0,
        0,
        1,
        0,
        144,
        0,
        -224,
        1
      ],
      "name": "black",
      "children": [
        407
      ]
    },
    {
      "name": "black",
      "mesh": 1
    },
    {
      "matrix": [
        1,
        0,
        0,
        0,
        0,
        1,
        0,
        0,
        0,
        0,
        1,
        0,
        144,
        0,
        -256,
        1
      ],
      "name": "black",
      "children": [
        409
      ]
    },
    {
      "name": "black",
      "mesh": 1
    },
    {
      "matrix": [
        1,
        0,
        0,
        0,
        0,
        1,
        0,
        0,
        0,
        0,
        1,
        0,
        176,
        0,
        256,
        1
      ],
      "name": "black",
      "children": [
        411
      ]
    },
    {
      "name": "black",
      "mesh": 1
    },
    {
      "matrix": [
        1,
        0,
        0,
        0,
        0,
        1,
        0,
        0,
        0,
        0,
        1,
        0,
        176,
        0,
        192,
        1
      ],
      "name": "black",
      "children": [
        413
      ]
    },
    {
      "name": "black",
      "mesh": 1
    },
    {
      "matrix": [
        1,
        0,
        0,
        0,
        0,
        1,
        0,
        0,
        0,
        0,
        1,
        0,
        176,
        0,
        128,
        1
      ],
      "name": "black",
      "children": [
        415
      ]
    },
    {
      "name": "black",
      "mesh": 1
    },
    {
      "matrix": [
        1,
        0,
        0,
        0,
        0,
        1,
        0,
        0,
        0,
        0,
        1,
        0,
        176,
        0,
        -96,
        1
      ],
      "name": "black",
      "children": [
        417
      ]
    },
    {
      "name": "black",
      "mesh": 1
    },
    {
      "matrix": [
        1,
        0,
        0,
        0,
        0,
        1,
        0,
        0,
        0,
        0,
        1,
        0,
        176,
        0,
        -128,
        1
      ],
      "name": "black",
      "children": [
        419
      ]
    },
    {
      "name": "black",
      "mesh": 1
    },
    {
      "matrix": [
        1,
        0,
        0,
        0,
        0,
        1,
        0,
        0,
        0,
        0,
        1,
        0,
        176,
        0,
        -192,
        1
      ],
      "name": "black",
      "children": [
        421
      ]
    },
    {
      "name": "black",
      "mesh": 1
    },
    {
      "matrix": [
        1,
        0,
        0,
        0,
        0,
        1,
        0,
        0,
        0,
        0,
        1,
        0,
        176,
        0,
        -256,
        1
      ],
      "name": "black",
      "children": [
        423
      ]
    },
    {
      "name": "black",
      "mesh": 1
    },
    {
      "matrix": [
        1,
        0,
        0,
        0,
        0,
        1,
        0,
        0,
        0,
        0,
        1,
        0,
        208,
        0,
        256,
        1
      ],
      "name": "black",
      "children": [
        425
      ]
    },
    {
      "name": "black",
      "mesh": 1
    },
    {
      "matrix": [
        1,
        0,
        0,
        0,
        0,
        1,
        0,
        0,
        0,
        0,
        1,
        0,
        208,
        0,
        224,
        1
      ],
      "name": "black",
      "children": [
        427
      ]
    },
    {
      "name": "black",
      "mesh": 1
    },
    {
      "matrix": [
        1,
        0,
        0,
        0,
        0,
        1,
        0,
        0,
        0,
        0,
        1,
        0,
        208,
        0,
        192,
        1
      ],
      "name": "black",
      "children": [
        429
      ]
    },
    {
      "name": "black",
      "mesh": 1
    },
    {
      "matrix": [
        1,
        0,
        0,
        0,
        0,
        1,
        0,
        0,
        0,
        0,
        1,
        0,
        208,
        0,
        128,
        1
      ],
      "name": "black",
      "children": [
        431
      ]
    },
    {
      "name": "black",
      "mesh": 1
    },
    {
      "matrix": [
        1,
        0,
        0,
        0,
        0,
        1,
        0,
        0,
        0,
        0,
        1,
        0,
        208,
        0,
        96,
        1
      ],
      "name": "black",
      "children": [
        433
      ]
    },
    {
      "name": "black",
      "mesh": 1
    },
    {
      "matrix": [
        1,
        0,
        0,
        0,
        0,
        1,
        0,
        0,
        0,
        0,
        1,
        0,
        208,
        0,
        64,
        1
      ],
      "name": "black",
      "children": [
        435
      ]
    },
    {
      "name": "black",
      "mesh": 1
    },
    {
      "matrix": [
        1,
        0,
        0,
        0,
        0,
        1,
        0,
        0,
        0,
        0,
        1,
        0,
        208,
        0,
        0,
        1
      ],
      "name": "black",
      "children": [
        437
      ]
    },
    {
      "name": "black",
      "mesh": 1
    },
    {
      "matrix": [
        1,
        0,
        0,
        0,
        0,
        1,
        0,
        0,
        0,
        0,
        1,
        0,
        208,
        0,
        -32,
        1
      ],
      "name": "black",
      "children": [
        439
      ]
    },
    {
      "name": "black",
      "mesh": 1
    },
    {
      "matrix": [
        1,
        0,
        0,
        0,
        0,
        1,
        0,
        0,
        0,
        0,
        1,
        0,
        208,
        0,
        -64,
        1
      ],
      "name": "black",
      "children": [
        441
      ]
    },
    {
      "name": "black",
      "mesh": 1
    },
    {
      "matrix": [
        1,
        0,
        0,
        0,
        0,
        1,
        0,
        0,
        0,
        0,
        1,
        0,
        208,
        0,
        -96,
        1
      ],
      "name": "black",
      "children": [
        443
      ]
    },
    {
      "name": "black",
      "mesh": 1
    },
    {
      "matrix": [
        1,
        0,
        0,
        0,
        0,
        1,
        0,
        0,
        0,
        0,
        1,
        0,
        208,
        0,
        -192,
        1
      ],
      "name": "black",
      "children": [
        445
      ]
    },
    {
      "name": "black",
      "mesh": 1
    },
    {
      "matrix": [
        1,
        0,
        0,
        0,
        0,
        1,
        0,
        0,
        0,
        0,
        1,
        0,
        208,
        0,
        -224,
        1
      ],
      "name": "black",
      "children": [
        447
      ]
    },
    {
      "name": "black",
      "mesh": 1
    },
    {
      "matrix": [
        1,
        0,
        0,
        0,
        0,
        1,
        0,
        0,
        0,
        0,
        1,
        0,
        208,
        0,
        -256,
        1
      ],
      "name": "black",
      "children": [
        449
      ]
    },
    {
      "name": "black",
      "mesh": 1
    },
    {
      "matrix": [
        1,
        0,
        0,
        0,
        0,
        1,
        0,
        0,
        0,
        0,
        1,
        0,
        240,
        0,
        64,
        1
      ],
      "name": "black",
      "children": [
        451
      ]
    },
    {
      "name": "black",
      "mesh": 1
    },
    {
      "matrix": [
        1,
        0,
        0,
        0,
        0,
        1,
        0,
        0,
        0,
        0,
        1,
        0,
        240,
        0,
        0,
        1
      ],
      "name": "black",
      "children": [
        453
      ]
    },
    {
      "name": "black",
      "mesh": 1
    },
    {
      "matrix": [
        1,
        0,
        0,
        0,
        0,
        1,
        0,
        0,
        0,
        0,
        1,
        0,
        240,
        0,
        -32,
        1
      ],
      "name": "black",
      "children": [
        455
      ]
    },
    {
      "name": "black",
      "mesh": 1
    },
    {
      "matrix": [
        1,
        0,
        0,
        0,
        0,
        1,
        0,
        0,
        0,
        0,
        1,
        0,
        240,
        0,
        -64,
        1
      ],
      "name": "black",
      "children": [
        457
      ]
    },
    {
      "name": "black",
      "mesh": 1
    },
    {
      "matrix": [
        1,
        0,
        0,
        0,
        0,
        1,
        0,
        0,
        0,
        0,
        1,
        0,
        240,
        0,
        -96,
        1
      ],
      "name": "black",
      "children": [
        459
      ]
    },
    {
      "name": "black",
      "mesh": 1
    },
    {
      "matrix": [
        1,
        0,
        0,
        0,
        0,
        1,
        0,
        0,
        0,
        0,
        1,
        0,
        240,
        0,
        -128,
        1
      ],
      "name": "black",
      "children": [
        461
      ]
    },
    {
      "name": "black",
      "mesh": 1
    },
    {
      "matrix": [
        1,
        0,
        0,
        0,
        0,
        1,
        0,
        0,
        0,
        0,
        1,
        0,
        240,
        0,
        -160,
        1
      ],
      "name": "black",
      "children": [
        463
      ]
    },
    {
      "name": "black",
      "mesh": 1
    },
    {
      "matrix": [
        1,
        0,
        0,
        0,
        0,
        1,
        0,
        0,
        0,
        0,
        1,
        0,
        240,
        0,
        -192,
        1
      ],
      "name": "black",
      "children": [
        465
      ]
    },
    {
      "name": "black",
      "mesh": 1
    },
    {
      "matrix": [
        1,
        0,
        0,
        0,
        0,
        1,
        0,
        0,
        0,
        0,
        1,
        0,
        272,
        0,
        64,
        1
      ],
      "name": "black",
      "children": [
        467
      ]
    },
    {
      "name": "black",
      "mesh": 1
    },
    {
      "matrix": [
        1,
        0,
        0,
        0,
        0,
        1,
        0,
        0,
        0,
        0,
        1,
        0,
        272,
        0,
        32,
        1
      ],
      "name": "black",
      "children": [
        469
      ]
    },
    {
      "name": "black",
      "mesh": 1
    },
    {
      "matrix": [
        1,
        0,
        0,
        0,
        0,
        1,
        0,
        0,
        0,
        0,
        1,
        0,
        -304,
        0,
        0,
        1
      ],
      "name": "black",
      "children": [
        471
      ]
    },
    {
      "name": "black",
      "mesh": 1
    },
    {
      "matrix": [
        1,
        0,
        0,
        0,
        0,
        1,
        0,
        0,
        0,
        0,
        1,
        0,
        -304,
        0,
        -32,
        1
      ],
      "name": "black",
      "children": [
        473
      ]
    },
    {
      "name": "black",
      "mesh": 1
    },
    {
      "matrix": [
        1,
        0,
        0,
        0,
        0,
        1,
        0,
        0,
        0,
        0,
        1,
        0,
        -304,
        0,
        -64,
        1
      ],
      "name": "black",
      "children": [
        475
      ]
    },
    {
      "name": "black",
      "mesh": 1
    },
    {
      "matrix": [
        1,
        0,
        0,
        0,
        0,
        1,
        0,
        0,
        0,
        0,
        1,
        0,
        -304,
        0,
        -96,
        1
      ],
      "name": "black",
      "children": [
        477
      ]
    },
    {
      "name": "black",
      "mesh": 1
    },
    {
      "matrix": [
        1,
        0,
        0,
        0,
        0,
        1,
        0,
        0,
        0,
        0,
        1,
        0,
        -304,
        0,
        -128,
        1
      ],
      "name": "black",
      "children": [
        479
      ]
    },
    {
      "name": "black",
      "mesh": 1
    },
    {
      "matrix": [
        1,
        0,
        0,
        0,
        0,
        1,
        0,
        0,
        0,
        0,
        1,
        0,
        -272,
        0,
        64,
        1
      ],
      "name": "black",
      "children": [
        481
      ]
    },
    {
      "name": "black",
      "mesh": 1
    },
    {
      "matrix": [
        1,
        0,
        0,
        0,
        0,
        1,
        0,
        0,
        0,
        0,
        1,
        0,
        -272,
        0,
        32,
        1
      ],
      "name": "black",
      "children": [
        483
      ]
    },
    {
      "name": "black",
      "mesh": 1
    },
    {
      "matrix": [
        1,
        0,
        0,
        0,
        0,
        1,
        0,
        0,
        0,
        0,
        1,
        0,
        272,
        0,
        -128,
        1
      ],
      "name": "black",
      "children": [
        485
      ]
    },
    {
      "name": "black",
      "mesh": 1
    },
    {
      "matrix": [
        1,
        0,
        0,
        0,
        0,
        1,
        0,
        0,
        0,
        0,
        1,
        0,
        304,
        0,
        32,
        1
      ],
      "name": "black",
      "children": [
        487
      ]
    },
    {
      "name": "black",
      "mesh": 1
    },
    {
      "matrix": [
        1,
        0,
        0,
        0,
        0,
        1,
        0,
        0,
        0,
        0,
        1,
        0,
        304,
        0,
        0,
        1
      ],
      "name": "black",
      "children": [
        489
      ]
    },
    {
      "name": "black",
      "mesh": 1
    },
    {
      "matrix": [
        1,
        0,
        0,
        0,
        0,
        1,
        0,
        0,
        0,
        0,
        1,
        0,
        304,
        0,
        -32,
        1
      ],
      "name": "black",
      "children": [
        491
      ]
    },
    {
      "name": "black",
      "mesh": 1
    },
    {
      "matrix": [
        1,
        0,
        0,
        0,
        0,
        1,
        0,
        0,
        0,
        0,
        1,
        0,
        304,
        0,
        -64,
        1
      ],
      "name": "black",
      "children": [
        493
      ]
    },
    {
      "name": "black",
      "mesh": 1
    },
    {
      "matrix": [
        1,
        0,
        0,
        0,
        0,
        1,
        0,
        0,
        0,
        0,
        1,
        0,
        304,
        0,
        -96,
        1
      ],
      "name": "black",
      "children": [
        495
      ]
    },
    {
      "name": "black",
      "mesh": 1
    },
    {
      "matrix": [
        1,
        0,
        0,
        0,
        0,
        1,
        0,
        0,
        0,
        0,
        1,
        0,
        304,
        0,
        -128,
        1
      ],
      "name": "black",
      "children": [
        497
      ]
    },
    {
      "matrix": [
        1,
        0,
        0,
        0,
        0,
        1,
        0,
        0,
        0,
        0,
        1,
        0,
        304,
        0,
        -256,
        1
      ],
      "name": "black",
      "children": [
        232,
        234,
        236,
        238,
        240,
        242,
        244,
        246,
        248,
        250,
        252,
        254,
        256,
        258,
        260,
        262,
        264,
        266,
        268,
        270,
        272,
        274,
        276,
        278,
        280,
        282,
        284,
        286,
        288,
        290,
        292,
        294,
        296,
        298,
        300,
        302,
        304,
        306,
        308,
        310,
        312,
        314,
        316,
        318,
        320,
        322,
        324,
        326,
        328,
        330,
        332,
        334,
        336,
        338,
        340,
        342,
        344,
        346,
        348,
        350,
        352,
        354,
        356,
        358,
        360,
        362,
        364,
        366,
        368,
        370,
        372,
        374,
        376,
        378,
        380,
        382,
        384,
        386,
        388,
        390,
        392,
        394,
        396,
        398,
        400,
        402,
        404,
        406,
        408,
        410,
        412,
        414,
        416,
        418,
        420,
        422,
        424,
        426,
        428,
        430,
        432,
        434,
        436,
        438,
        440,
        442,
        444,
        446,
        448,
        450,
        452,
        454,
        456,
        458,
        460,
        462,
        464,
        466,
        468,
        470,
        472,
        474,
        476,
        478,
        480,
        482,
        484,
        486,
        488,
        490,
        492,
        494,
        496,
        498
      ]
    },
    {
      "matrix": [
        1,
        0,
        0,
        0,
        0,
        2.220446049250313e-16,
        1,
        0,
        0,
        -1,
        2.220446049250313e-16,
        0,
        -300.94235990053784,
        19.520313322028954,
        9.428118915822495,
        1
      ],
      "name": "black Clones 2",
      "children": [
        230,
        499
      ]
    },
    {
      "matrix": [
        0.18191679895353252,
        0.3528680022547709,
        -0.9178183105839778,
        0,
        -0.888834730366395,
        0.4582279150100939,
        0,
        0,
        0.42056997081698294,
        0.8157887906132502,
        0.3970006911288354,
        0,
        0,
        0,
        0,
        1
      ],
      "name": "Directional Light",
      "extensions": {
        "KHR_lights_punctual": {
          "light": 4
        }
      }
    },
    {
      "matrix": [
        0.8836746852155251,
        -6.938893903907228e-18,
        0.4681015388879239,
        0,
        0.12154136770959764,
        0.9657034768823176,
        -0.22944387259781737,
        0,
        -0.45204728363803154,
        0.259647443155913,
        0.8533677159455202,
        0,
        -398.0242348827677,
        454.5595105526804,
        763.9881924753788,
        1
      ],
      "camera": 1
    },
    {
      "matrix": [
        1,
        0,
        0,
        0,
        0,
        1,
        0,
        0,
        0,
        0,
        1,
        0,
        0,
        1,
        0,
        1
      ],
      "name": "Default Ambient Light"
    },
    {
      "mesh": 1
    },
    {
      "mesh": 0
    },
    {
      "name": "Scene 1",
      "children": [
        1,
        2,
        3,
        4,
        5,
        500,
        501,
        502,
        503,
        504,
        505
      ]
    }
  ],
  "extensions": {
    "KHR_lights_punctual": {
      "lights": [
        {
          "name": "Point Light 2",
          "color": [
            1,
            1,
            1
          ],
          "intensity": 9.42477796076938,
          "type": "point",
          "range": 2000
        },
        {
          "name": "Spot Light",
          "color": [
            1,
            1,
            1
          ],
          "intensity": 31.41592653589793,
          "type": "spot",
          "range": 2000,
          "spot": {
            "innerConeAngle": 1.064650843716541,
            "outerConeAngle": 1.064650843716541
          }
        },
        {
          "name": "Directional Light 2",
          "color": [
            1,
            1,
            1
          ],
          "intensity": 3.141592653589793,
          "type": "directional"
        },
        {
          "name": "Point Light",
          "color": [
            1,
            1,
            1
          ],
          "intensity": 3.141592653589793,
          "type": "point",
          "range": 2000
        },
        {
          "name": "Directional Light",
          "color": [
            1,
            1,
            1
          ],
          "intensity": 2.199114857512855,
          "type": "directional"
        }
      ]
    }
  },
  "cameras": [
    {
      "type": "orthographic",
      "orthographic": {
        "xmag": 6.924304382779016,
        "ymag": 5.366675990189237,
        "zfar": 100000,
        "znear": 0
      },
      "name": "Camera"
    },
    {
      "type": "orthographic",
      "orthographic": {
        "xmag": 7.28874145555686,
        "ymag": 5.649132621251829,
        "zfar": 100000,
        "znear": 0
      }
    }
  ],
  "bufferViews": [
    {
      "buffer": 0,
      "byteOffset": 0,
      "byteLength": 7200,
      "target": 34962,
      "byteStride": 12
    },
    {
      "buffer": 0,
      "byteOffset": 7200,
      "byteLength": 7200,
      "target": 34962,
      "byteStride": 12
    },
    {
      "buffer": 0,
      "byteOffset": 14400,
      "byteLength": 4800,
      "target": 34962,
      "byteStride": 8
    },
    {
      "buffer": 0,
      "byteOffset": 19200,
      "byteLength": 8592,
      "target": 34963
    }
  ],
  "buffers": [
    {
      "byteLength": 27792,
      "uri": "data:application/octet-stream;base64,"
    }
  ],
  "accessors": [
    {
      "bufferView": 0,
      "componentType": 5126,
      "count": 600,
      "max": [
        16,
        28,
        16
      ],
      "min": [
        -16,
        -28,
        -16
      ],
      "type": "VEC3"
    },
    {
      "bufferView": 1,
      "componentType": 5126,
      "count": 600,
      "max": [
        1,
        1,
        1
      ],
      "min": [
        -1,
        -1,
        -1
      ],
      "type": "VEC3"
    },
    {
      "bufferView": 2,
      "componentType": 5126,
      "count": 600,
      "max": [
        1,
        1
      ],
      "min": [
        0,
        0
      ],
      "type": "VEC2"
    },
    {
      "bufferView": 3,
      "componentType": 5125,
      "count": 2148,
      "max": [
        599
      ],
      "min": [
        0
      ],
      "type": "SCALAR"
    }
  ],
  "meshes": [
    {
      "primitives": [
        {
          "mode": 4,
          "attributes": {
            "POSITION": 0,
            "NORMAL": 1,
            "TEXCOORD_0": 2
          },
          "extras": {
            "parameters": {
              "width": 32,
              "widthSegments": 1,
              "heightSegments": 1,
              "depthSegments": 1,
              "cornerRadius": 2,
              "cornerSegments": 8,
              "depth": 32,
              "height": 56,
              "type": "CubeGeometry"
            },
            "type": "CubeGeometry"
          },
          "indices": 3
        }
      ]
    },
    {
      "primitives": [
        {
          "mode": 4,
          "attributes": {
            "POSITION": 0,
            "NORMAL": 1,
            "TEXCOORD_0": 2
          },
          "extras": {
            "parameters": {
              "width": 32,
              "widthSegments": 1,
              "heightSegments": 1,
              "depthSegments": 1,
              "cornerRadius": 2,
              "cornerSegments": 8,
              "depth": 32,
              "height": 56,
              "type": "CubeGeometry"
            },
            "type": "CubeGeometry"
          },
          "indices": 3
        }
      ]
    }
  ],
  "extensionsUsed": [
    "KHR_lights_punctual"
  ]
}