{"asset":{"version":"2.0","generator":"THREE.GLTFExporter"},"scenes":[{"name":"sphere","nodes":[2]}],"scene":0,"nodes":[{"children":[49],"matrix":[0.01,0,0,0,0,0.01,0,0,0,0,0.01,0,0,0,0,1]},{"name":"57ee785d-7b51-4738-b7be-329837c624d5.jpg","mesh":0},{"matrix":[1.6653345369377348e-16,-1.6653345369377348e-16,0.75,0,0.75,0,-1.6653345369377348e-16,0,0,0.75,1.6653345369377348e-16,0,-46.52990463345721,23.228603808568444,468.32167434115104,1],"name":"Sphere 5","mesh":1},{"matrix":[1.1102230246251565e-16,-1.1102230246251565e-16,0.5,0,0.5,0,-1.1102230246251565e-16,0,0,0.5,1.1102230246251565e-16,0,92.9030164624378,23.22860380856836,778.6986822398364,1],"name":"Sphere 4","mesh":2},{"matrix":[2.220446049250313e-16,-2.220446049250313e-16,1,0,1,0,-2.220446049250313e-16,0,0,1,2.220446049250313e-16,0,334.47478265945523,66.40678467074292,565.2612512815582,1],"name":"Sphere 3","mesh":3},{"matrix":[0.35514565126938424,0.14881753256223368,0.5845724150065014,0,-0.5391513766941798,-0.2259218922444297,0.3850650485482504,0,0.27053162364724626,-0.6456102853942032,-4.662936703425657e-16,0,312.1462411828999,22.406909267125346,269.71059625107074,1],"name":"Cone 2","mesh":4},{"matrix":[-6.661338147750939e-17,1.1657341758564144e-16,0.29999999999999993,0,0.28862178433907315,0.08183804497255248,1.1657341758564144e-16,0,-0.08183804497255243,0.28862178433907315,-6.661338147750939e-17,0,-243.05589316026186,482.1806594815427,841.8248389174248,1],"name":"Cube 3","mesh":5},{"matrix":[-1.1102230246251565e-16,1.942890293094024e-16,0.4999999999999999,0,0.4810363072317886,0.1363967416209208,1.942890293094024e-16,0,-0.13639674162092072,0.4810363072317886,-1.1102230246251565e-16,0,399.28516202725694,116.02711515612066,780.1346888791443,1],"name":"Cube 2","mesh":6},{"matrix":[-3.838370742524376e-16,3.3306690738754686e-16,0.9999999999999993,0,-1.0000000000000002,-4.716519620828162e-16,-2.779066210998529e-16,0,3.3900104691651355e-17,-0.08313591001937959,5.076467081217423e-17,0,-1.7869740733403376,-80.450593620334,-2.9857215109018465,1.0000000000000007],"name":"Ellipse","mesh":7},{"matrix":[3.1569222386525376e-16,5.551115123125785e-17,0.9999999999999994,0,0.9999999999999996,-8.82655085683105e-18,-2.0384307709529778e-16,0,5.966523557717231e-19,0.08313591001937955,3.230479051683815e-17,0,1.7869740733405048,80.45059362033396,-2.123419411585026,0.9999999999999999],"name":"Ellipse","mesh":7},{"matrix":[-4.504931973996559e-16,3.3306690738754686e-16,0.9999999999999997,0,-1.0000000000000002,-4.1614081085155513e-16,-3.8892892356236715e-16,0,4.577593177116804e-16,-1.0000000000000004,5.551115123125784e-16,0,-1.7869740733403316,-11.279757181975796,-3.9857215109009303,1.0000000000000004],"name":"Ellipse","mesh":8},{"matrix":[2.601810726339961e-16,-5.551115123125783e-17,0.9999999999999996,0,1,-3.658212647245995e-17,-2.5935422832655563e-16,0,7.176830753793808e-18,1.0000000000000002,4.440892098500626e-16,0,1.7869740733405028,11.279757181975727,-3.1234194115850182,1.0000000000000002],"name":"Ellipse","mesh":8},{"matrix":[-1.0000000000000002,-6.695352868347752e-17,0,0,6.695352868347752e-17,-1.0000000000000002,0,0,0,0,1,0,-0.3219850655652294,0.2585627617566075,-0.4311510496581832,1],"name":"Boolean","mesh":9},{"matrix":[1,0,0,0,0,1,0,0,0,0,1,0,0.32198506556522943,-0.2585627617565791,0.4311510496581832,1],"name":"Boolean","mesh":10},{"matrix":[2.60726034451159e-16,-5.551115123125778e-17,0.9999999999999998,0,0.9999999999999998,-8.826550856831076e-18,-2.5935422832655563e-16,0,-2.1666052904076393e-17,1,3.3306690738754696e-16,0,0.023607761773291797,-6.397695301716753,0.14520493638110535,1],"name":"Ellipse","mesh":11},{"matrix":[0.5385375355354162,-0.6492013773873709,-0.10495186714766305,0,0.6083116788730885,0.4402241833660285,0.3983209380968039,0,-0.24986841370218227,-0.3274755563061978,0.7435223842332532,0,261.40192111700696,42.5071205851909,864.0246856902282,1],"name":"Group 7","children":[8,9,10,11,12,13,14]},{"matrix":[0.3530751987608846,-5.593176854504555e-23,0.3540309365295099,0,-5.856160969138253e-20,0.5,5.848251022573884e-20,0,-0.3540309365295099,-8.276269089141027e-20,0.3530751987608846,0,-54.147078032918444,41.85277862517074,-53.478344691508255,1],"name":"Boolean","mesh":12},{"matrix":[0.35355339059327373,0,-0.35355339059327384,0,0,0.5,0,0,0.35355339059327384,0,0.35355339059327373,0,-54.21995698209457,42.040697288195645,54.36322432692077,1],"name":"Boolean","mesh":13},{"matrix":[0.3530751987608846,-5.593176854504555e-23,0.3540309365295099,0,-5.856160969138253e-20,0.5,5.848251022573884e-20,0,-0.3540309365295099,-8.276269089141027e-20,0.3530751987608846,0,53.47594920146662,41.85277862517074,54.43600686208583,1],"name":"Boolean","mesh":14},{"matrix":[0.35355339059327373,0,-0.35355339059327384,0,0,0.5,0,0,0.35355339059327384,0,0.35355339059327373,0,53.548830851688194,42.040697288195645,-53.40556350686211,1],"name":"Boolean","mesh":15},{"matrix":[0.6123271232969091,0,0,0,0,1.359639341773431e-16,-0.6123271232969091,0,0,0.9378097301787996,2.0823559103240178e-16,0,-110.22789994330586,-7.6958119352178045,-109.75899274237261,1.0000000000000007],"name":"Shape","mesh":16},{"matrix":[0.6123271232969091,0,0,0,0,1.359639341773431e-16,-0.6123271232969091,0,0,0.9378097301787996,2.0823559103240178e-16,0,-109.29009021312709,-2.4653049198009853,-109.75899274237258,1.0000000000000007],"name":"Shape","mesh":17},{"matrix":[0.6123271232969091,0,0,0,0,1.359639341773431e-16,-0.6123271232969091,0,0,0.9378097301787996,2.0823559103240178e-16,0,-109.29009021312712,-50.43532357557507,-109.75899274237261,1.0000000000000007],"name":"Shape","mesh":18},{"matrix":[0.7374731741517067,-0.20879070122081,-0.36747756460813896,0,0.3980275099093387,0.5916565235136302,0.4626193462655194,0,0.14215280075319583,-0.5734535737681715,0.6111003027085935,0,99.97770202591961,229.82214089097508,733.2487236473729,1],"name":"Cross 2","children":[16,17,18,19,20,21,22]},{"matrix":[1,0,0,0,0,1,0,0,0,0,1,0,-4.968591740656478,-0.3130995926945843,9.934423558487197,1],"name":"Boolean","mesh":19},{"matrix":[2.60726034451159e-16,-5.551115123125778e-17,0.9999999999999998,0,0.9999999999999998,-8.826550856831076e-18,-2.5935422832655563e-16,0,-2.1666052904076393e-17,1,3.3306690738754696e-16,0,-2.4127492145616463e-15,-11.464225854553149,-26.011984191729194,1],"name":"Ellipse","mesh":20},{"matrix":[2.60726034451159e-16,-5.551115123125778e-17,0.9999999999999998,0,0.9999999999999998,-8.826550856831076e-18,-2.5935422832655563e-16,0,-2.1666052904076393e-17,1,3.3306690738754696e-16,0,-2.442490654175345e-15,-44,-26.01198419172943,1],"name":"Ellipse","mesh":21},{"matrix":[1,0,0,0,0,1,0,0,0,0,1,0,-4.664773714193672,31.6485309424113,80.74487188372439,1],"name":"Boolean","mesh":22},{"matrix":[-0.7388939904653193,-0.052567579792919816,0.6717680555139186,0,8.673617379884035e-17,0.9969522572339474,0.07801408075557303,0,-0.6738216906973508,0.05764413544196911,-0.736642031650999,0,-136.9196034030096,84.79991138809464,748.6438815598592,1],"name":"Group 8","children":[24,25,26,27]},{"matrix":[2.60726034451159e-16,-5.551115123125778e-17,0.9999999999999998,0,0.9999999999999998,-8.826550856831076e-18,-2.5935422832655563e-16,0,-2.1666052904076393e-17,1,3.3306690738754696e-16,0,0.2988671318098001,-7.521334825019778,0.41563337631464486,1],"name":"Ellipse","mesh":23},{"matrix":[1,0,0,0,0,1,0,0,0,0,1,0,-5.684341886080802e-14,14.33798225926904,0,1],"name":"Boolean","mesh":24},{"matrix":[2.60726034451159e-16,-5.551115123125778e-17,0.9999999999999998,0,0.9999999999999998,-8.826550856831076e-18,-2.5935422832655563e-16,0,-2.1666052904076393e-17,1,3.3306690738754696e-16,0,-2.523860222597508e-16,-36.546582383210136,-5.04772044519501e-16,1],"name":"Ellipse","mesh":25},{"matrix":[2.60726034451159e-16,-5.551115123125778e-17,0.9999999999999998,0,0.9999999999999998,-8.826550856831076e-18,-2.5935422832655563e-16,0,-2.1666052904076393e-17,1,3.3306690738754696e-16,0,0.7831290400665691,-43.48691593544003,0.005950289185194986,1],"name":"Ellipse","mesh":26},{"matrix":[-0.0006758086572310336,-7.508576491843707e-20,0.4999995432824503,0,2.767281292473751e-17,0.5,-5.593176854517216e-23,0,-0.4999995432824504,-5.559386321631529e-17,-0.0006758086572310337,0,1.4677975271108608,27.18039160448689,-75.8420651858637,1],"name":"Boolean","mesh":27},{"matrix":[0.5,0,0,0,0,0.5,0,0,0,0,0.5,0,-74.8392404187855,27.368310267511674,0.36190636169590107,1],"name":"Boolean","mesh":28},{"matrix":[-0.0006758086572310336,-7.508576491843707e-20,0.4999995432824503,0,2.767281292473751e-17,0.5,-5.593176854517216e-23,0,-0.4999995432824504,-5.559386321631529e-17,-0.0006758086572310337,0,1.2618001254733713,27.18039160448689,76.56587695428948,1],"name":"Boolean","mesh":29},{"matrix":[0.5,0,0,0,0,0.5,0,0,0,0,0.5,0,77.568840936259,27.368310267511674,0.36190636169590107,1],"name":"Boolean","mesh":30},{"matrix":[0.7683211286061339,0.6370672226229138,-0.06187081054037766,0,-0.5587059906799053,0.7146829659234555,0.42080384289742223,0,0.3122983498447951,-0.2887448909996152,0.9050392967191194,0,367.25125351207186,373.6072021633515,773.2055898034764,1],"name":"Group 6","children":[29,30,31,32,33,34,35,36]},{"matrix":[1,0,0,0,0,2.220446049250313e-16,-1,0,0,1,2.220446049250313e-16,0,-80.71503362059593,-7.180829573261377,-82.51999977231026,1],"name":"Shape","mesh":31},{"matrix":[1,0,0,0,0,2.220446049250313e-16,-1,0,0,1,2.220446049250313e-16,0,-80.71503362059593,1.3546554596014175,-82.51999977231026,1],"name":"Shape","mesh":32},{"matrix":[1,0,0,0,0,2.220446049250313e-16,-1,0,0,1,2.220446049250313e-16,0,-80.71503362059593,-38.305754162497635,-82.51999977231026,1],"name":"Shape","mesh":33},{"matrix":[0.35355339059327373,0,-0.35355339059327384,0,0,0.5,0,0,0.35355339059327384,0,0.35355339059327373,0,-51.108216738398255,34.3488552489618,51.99339064237802,1],"name":"Boolean","mesh":34},{"matrix":[0.35355339059327373,0,-0.35355339059327384,0,0,0.5,0,0,0.35355339059327384,0,0.35355339059327373,0,56.66057109538474,34.3488552489618,-55.77539719140486,1],"name":"Boolean","mesh":35},{"name":"Group 4","children":[38,39,40,41,42]},{"matrix":[0.23966398321503068,0.20079233971249427,0.9498650490792298,0,0.6112759155908918,-0.7913100909568636,0.013042046172154875,0,0.7542565413491766,0.5775039188288006,-0.3123880496583622,0,-6.422545017565561,108.2676863268896,308.17682272711585,1],"name":"Group 9","children":[43]},{"matrix":[3.579399896552299e-16,-1.6653345369377348e-16,1,0,0.9999999999999999,2.1871208377741527e-17,-1.3589538473019852e-16,0,3.36399428535163e-17,1,2.220446049250313e-16,0,190.51166046057782,-157.00000000000006,477.44355209444535,1],"name":"Rectangle","mesh":36},{"matrix":[0.052430947790129204,0.15182420440971228,-0.9870159100385295,0,-0.9452236596470379,0.3264233956741774,0,0,0.3221850849392152,0.9329507906164705,0.1606225181312177,0,0,0,0,1],"name":"Directional Light","extensions":{"KHR_lights_punctual":{"light":0}}},{"matrix":[0.9684255001880218,1.3877787807814457e-17,0.2493031299153301,0,0.17270118425021908,0.7211915254635558,-0.6708629402181351,0,-0.17979530456647597,0.6927357242120181,0.6984202637784065,0,30.598287290955,669.2447087845641,1567.125922992523,1],"camera":0},{"matrix":[1,0,0,0,0,1,0,0,0,0,1,0,0,1,0,1],"name":"Default Ambient Light"},{"name":"Composition","children":[1,2,3,4,5,6,7,15,23,28,37,44,45,46,47,48]}],"bufferViews":[{"buffer":0,"byteOffset":0,"byteLength":48,"target":34962,"byteStride":12},{"buffer":0,"byteOffset":48,"byteLength":48,"target":34962,"byteStride":12},{"buffer":0,"byteOffset":96,"byteLength":32,"target":34962,"byteStride":8},{"buffer":0,"byteOffset":128,"byteLength":24,"target":34963},{"buffer":0,"byteOffset":152,"byteLength":50700,"target":34962,"byteStride":12},{"buffer":0,"byteOffset":50852,"byteLength":50700,"target":34962,"byteStride":12},{"buffer":0,"byteOffset":101552,"byteLength":33800,"target":34962,"byteStride":8},{"buffer":0,"byteOffset":135352,"byteLength":96768,"target":34963},{"buffer":0,"byteOffset":232120,"byteLength":50700,"target":34962,"byteStride":12},{"buffer":0,"byteOffset":282820,"byteLength":50700,"target":34962,"byteStride":12},{"buffer":0,"byteOffset":333520,"byteLength":33800,"target":34962,"byteStride":8},{"buffer":0,"byteOffset":367320,"byteLength":96768,"target":34963},{"buffer":0,"byteOffset":464088,"byteLength":50700,"target":34962,"byteStride":12},{"buffer":0,"byteOffset":514788,"byteLength":50700,"target":34962,"byteStride":12},{"buffer":0,"byteOffset":565488,"byteLength":33800,"target":34962,"byteStride":8},{"buffer":0,"byteOffset":599288,"byteLength":96768,"target":34963},{"buffer":0,"byteOffset":696056,"byteLength":12276,"target":34962,"byteStride":12},{"buffer":0,"byteOffset":708332,"byteLength":12276,"target":34962,"byteStride":12},{"buffer":0,"byteOffset":720608,"byteLength":8184,"target":34962,"byteStride":8},{"buffer":0,"byteOffset":728792,"byteLength":22656,"target":34963},{"buffer":0,"byteOffset":751448,"byteLength":7200,"target":34962,"byteStride":12},{"buffer":0,"byteOffset":758648,"byteLength":7200,"target":34962,"byteStride":12},{"buffer":0,"byteOffset":765848,"byteLength":4800,"target":34962,"byteStride":8},{"buffer":0,"byteOffset":770648,"byteLength":8592,"target":34963},{"buffer":0,"byteOffset":779240,"byteLength":7200,"target":34962,"byteStride":12},{"buffer":0,"byteOffset":786440,"byteLength":7200,"target":34962,"byteStride":12},{"buffer":0,"byteOffset":793640,"byteLength":4800,"target":34962,"byteStride":8},{"buffer":0,"byteOffset":798440,"byteLength":8592,"target":34963},{"buffer":0,"byteOffset":807032,"byteLength":9312,"target":34962,"byteStride":12},{"buffer":0,"byteOffset":816344,"byteLength":9312,"target":34962,"byteStride":12},{"buffer":0,"byteOffset":825656,"byteLength":6208,"target":34962,"byteStride":8},{"buffer":0,"byteOffset":831864,"byteLength":12288,"target":34963},{"buffer":0,"byteOffset":844152,"byteLength":9312,"target":34962,"byteStride":12},{"buffer":0,"byteOffset":853464,"byteLength":9312,"target":34962,"byteStride":12},{"buffer":0,"byteOffset":862776,"byteLength":6208,"target":34962,"byteStride":8},{"buffer":0,"byteOffset":868984,"byteLength":12288,"target":34963},{"buffer":0,"byteOffset":881272,"byteLength":224748,"target":34962,"byteStride":12},{"buffer":0,"byteOffset":1106020,"byteLength":224748,"target":34962,"byteStride":12},{"buffer":0,"byteOffset":1330768,"byteLength":74916,"target":34963},{"buffer":0,"byteOffset":1405684,"byteLength":224748,"target":34962,"byteStride":12},{"buffer":0,"byteOffset":1630432,"byteLength":224748,"target":34962,"byteStride":12},{"buffer":0,"byteOffset":1855180,"byteLength":74916,"target":34963},{"buffer":0,"byteOffset":1930096,"byteLength":9312,"target":34962,"byteStride":12},{"buffer":0,"byteOffset":1939408,"byteLength":9312,"target":34962,"byteStride":12},{"buffer":0,"byteOffset":1948720,"byteLength":6208,"target":34962,"byteStride":8},{"buffer":0,"byteOffset":1954928,"byteLength":12288,"target":34963},{"buffer":0,"byteOffset":1967216,"byteLength":198468,"target":34962,"byteStride":12},{"buffer":0,"byteOffset":2165684,"byteLength":198468,"target":34962,"byteStride":12},{"buffer":0,"byteOffset":2364152,"byteLength":66156,"target":34963},{"buffer":0,"byteOffset":2430308,"byteLength":198468,"target":34962,"byteStride":12},{"buffer":0,"byteOffset":2628776,"byteLength":198468,"target":34962,"byteStride":12},{"buffer":0,"byteOffset":2827244,"byteLength":66156,"target":34963},{"buffer":0,"byteOffset":2893400,"byteLength":198468,"target":34962,"byteStride":12},{"buffer":0,"byteOffset":3091868,"byteLength":198468,"target":34962,"byteStride":12},{"buffer":0,"byteOffset":3290336,"byteLength":66156,"target":34963},{"buffer":0,"byteOffset":3356492,"byteLength":198468,"target":34962,"byteStride":12},{"buffer":0,"byteOffset":3554960,"byteLength":198468,"target":34962,"byteStride":12},{"buffer":0,"byteOffset":3753428,"byteLength":66156,"target":34963},{"buffer":0,"byteOffset":3819584,"byteLength":8112,"target":34962,"byteStride":12},{"buffer":0,"byteOffset":3827696,"byteLength":8112,"target":34962,"byteStride":12},{"buffer":0,"byteOffset":3835808,"byteLength":5408,"target":34962,"byteStride":8},{"buffer":0,"byteOffset":3841216,"byteLength":7920,"target":34963},{"buffer":0,"byteOffset":3849136,"byteLength":8112,"target":34962,"byteStride":12},{"buffer":0,"byteOffset":3857248,"byteLength":8112,"target":34962,"byteStride":12},{"buffer":0,"byteOffset":3865360,"byteLength":5408,"target":34962,"byteStride":8},{"buffer":0,"byteOffset":3870768,"byteLength":10512,"target":34963},{"buffer":0,"byteOffset":3881280,"byteLength":8112,"target":34962,"byteStride":12},{"buffer":0,"byteOffset":3889392,"byteLength":8112,"target":34962,"byteStride":12},{"buffer":0,"byteOffset":3897504,"byteLength":5408,"target":34962,"byteStride":8},{"buffer":0,"byteOffset":3902912,"byteLength":10512,"target":34963},{"buffer":0,"byteOffset":3913424,"byteLength":113040,"target":34962,"byteStride":12},{"buffer":0,"byteOffset":4026464,"byteLength":113040,"target":34962,"byteStride":12},{"buffer":0,"byteOffset":4139504,"byteLength":9312,"target":34962,"byteStride":12},{"buffer":0,"byteOffset":4148816,"byteLength":9312,"target":34962,"byteStride":12},{"buffer":0,"byteOffset":4158128,"byteLength":6208,"target":34962,"byteStride":8},{"buffer":0,"byteOffset":4164336,"byteLength":12288,"target":34963},{"buffer":0,"byteOffset":4176624,"byteLength":9312,"target":34962,"byteStride":12},{"buffer":0,"byteOffset":4185936,"byteLength":9312,"target":34962,"byteStride":12},{"buffer":0,"byteOffset":4195248,"byteLength":6208,"target":34962,"byteStride":8},{"buffer":0,"byteOffset":4201456,"byteLength":12288,"target":34963},{"buffer":0,"byteOffset":4213744,"byteLength":153360,"target":34962,"byteStride":12},{"buffer":0,"byteOffset":4367104,"byteLength":153360,"target":34962,"byteStride":12},{"buffer":0,"byteOffset":4520464,"byteLength":51120,"target":34963},{"buffer":0,"byteOffset":4571584,"byteLength":9312,"target":34962,"byteStride":12},{"buffer":0,"byteOffset":4580896,"byteLength":9312,"target":34962,"byteStride":12},{"buffer":0,"byteOffset":4590208,"byteLength":6208,"target":34962,"byteStride":8},{"buffer":0,"byteOffset":4596416,"byteLength":9216,"target":34963},{"buffer":0,"byteOffset":4605632,"byteLength":62424,"target":34962,"byteStride":12},{"buffer":0,"byteOffset":4668056,"byteLength":62424,"target":34962,"byteStride":12},{"buffer":0,"byteOffset":4730480,"byteLength":9312,"target":34962,"byteStride":12},{"buffer":0,"byteOffset":4739792,"byteLength":9312,"target":34962,"byteStride":12},{"buffer":0,"byteOffset":4749104,"byteLength":6208,"target":34962,"byteStride":8},{"buffer":0,"byteOffset":4755312,"byteLength":12288,"target":34963},{"buffer":0,"byteOffset":4767600,"byteLength":9312,"target":34962,"byteStride":12},{"buffer":0,"byteOffset":4776912,"byteLength":9312,"target":34962,"byteStride":12},{"buffer":0,"byteOffset":4786224,"byteLength":6208,"target":34962,"byteStride":8},{"buffer":0,"byteOffset":4792432,"byteLength":12288,"target":34963},{"buffer":0,"byteOffset":4804720,"byteLength":198468,"target":34962,"byteStride":12},{"buffer":0,"byteOffset":5003188,"byteLength":198468,"target":34962,"byteStride":12},{"buffer":0,"byteOffset":5201656,"byteLength":66156,"target":34963},{"buffer":0,"byteOffset":5267812,"byteLength":198468,"target":34962,"byteStride":12},{"buffer":0,"byteOffset":5466280,"byteLength":198468,"target":34962,"byteStride":12},{"buffer":0,"byteOffset":5664748,"byteLength":66156,"target":34963},{"buffer":0,"byteOffset":5730904,"byteLength":198468,"target":34962,"byteStride":12},{"buffer":0,"byteOffset":5929372,"byteLength":198468,"target":34962,"byteStride":12},{"buffer":0,"byteOffset":6127840,"byteLength":66156,"target":34963},{"buffer":0,"byteOffset":6193996,"byteLength":198468,"target":34962,"byteStride":12},{"buffer":0,"byteOffset":6392464,"byteLength":198468,"target":34962,"byteStride":12},{"buffer":0,"byteOffset":6590932,"byteLength":66156,"target":34963},{"buffer":0,"byteOffset":6657088,"byteLength":10416,"target":34962,"byteStride":12},{"buffer":0,"byteOffset":6667504,"byteLength":10416,"target":34962,"byteStride":12},{"buffer":0,"byteOffset":6677920,"byteLength":6944,"target":34962,"byteStride":8},{"buffer":0,"byteOffset":6684864,"byteLength":13776,"target":34963},{"buffer":0,"byteOffset":6698640,"byteLength":10416,"target":34962,"byteStride":12},{"buffer":0,"byteOffset":6709056,"byteLength":10416,"target":34962,"byteStride":12},{"buffer":0,"byteOffset":6719472,"byteLength":6944,"target":34962,"byteStride":8},{"buffer":0,"byteOffset":6726416,"byteLength":13776,"target":34963},{"buffer":0,"byteOffset":6740192,"byteLength":10416,"target":34962,"byteStride":12},{"buffer":0,"byteOffset":6750608,"byteLength":10416,"target":34962,"byteStride":12},{"buffer":0,"byteOffset":6761024,"byteLength":6944,"target":34962,"byteStride":8},{"buffer":0,"byteOffset":6767968,"byteLength":13776,"target":34963},{"buffer":0,"byteOffset":6781744,"byteLength":198468,"target":34962,"byteStride":12},{"buffer":0,"byteOffset":6980212,"byteLength":198468,"target":34962,"byteStride":12},{"buffer":0,"byteOffset":7178680,"byteLength":66156,"target":34963},{"buffer":0,"byteOffset":7244836,"byteLength":198468,"target":34962,"byteStride":12},{"buffer":0,"byteOffset":7443304,"byteLength":198468,"target":34962,"byteStride":12},{"buffer":0,"byteOffset":7641772,"byteLength":66156,"target":34963},{"buffer":0,"byteOffset":7707928,"byteLength":48,"target":34962,"byteStride":12},{"buffer":0,"byteOffset":7707976,"byteLength":48,"target":34962,"byteStride":12},{"buffer":0,"byteOffset":7708024,"byteLength":32,"target":34962,"byteStride":8},{"buffer":0,"byteOffset":7708056,"byteLength":24,"target":34963}],"buffers":[{"byteLength":7708080,"uri":"shared.bin"}],"accessors":[{"bufferView":0,"componentType":5126,"count":4,"max":[1018,789,0],"min":[-1018,-789,0],"type":"VEC3"},{"bufferView":1,"componentType":5126,"count":4,"max":[0,0,1],"min":[0,0,1],"type":"VEC3"},{"bufferView":2,"componentType":5126,"count":4,"max":[1,1],"min":[0,0],"type":"VEC2"},{"bufferView":3,"componentType":5125,"count":6,"max":[3],"min":[0],"type":"SCALAR"},{"bufferView":4,"componentType":5126,"count":4225,"max":[23.77139663696289,23.77139663696289,23.77139663696289],"min":[-23.77139663696289,-23.77139663696289,-23.77139663696289],"type":"VEC3"},{"bufferView":5,"componentType":5126,"count":4225,"max":[1,1,1],"min":[-1,-1,-1],"type":"VEC3"},{"bufferView":6,"componentType":5126,"count":4225,"max":[1.0078125,1],"min":[-0.0078125,0],"type":"VEC2"},{"bufferView":7,"componentType":5125,"count":24192,"max":[4224],"min":[0],"type":"SCALAR"},{"bufferView":8,"componentType":5126,"count":4225,"max":[23.77139663696289,23.77139663696289,23.77139663696289],"min":[-23.77139663696289,-23.77139663696289,-23.77139663696289],"type":"VEC3"},{"bufferView":9,"componentType":5126,"count":4225,"max":[1,1,1],"min":[-1,-1,-1],"type":"VEC3"},{"bufferView":10,"componentType":5126,"count":4225,"max":[1.0078125,1],"min":[-0.0078125,0],"type":"VEC2"},{"bufferView":11,"componentType":5125,"count":24192,"max":[4224],"min":[0],"type":"SCALAR"},{"bufferView":12,"componentType":5126,"count":4225,"max":[23.77139663696289,23.77139663696289,23.77139663696289],"min":[-23.77139663696289,-23.77139663696289,-23.77139663696289],"type":"VEC3"},{"bufferView":13,"componentType":5126,"count":4225,"max":[1,1,1],"min":[-1,-1,-1],"type":"VEC3"},{"bufferView":14,"componentType":5126,"count":4225,"max":[1.0078125,1],"min":[-0.0078125,0],"type":"VEC2"},{"bufferView":15,"componentType":5125,"count":24192,"max":[4224],"min":[0],"type":"SCALAR"},{"bufferView":16,"componentType":5126,"count":1023,"max":[26.02228546142578,29.5,26.02228546142578],"min":[-26.02228546142578,-29.5,-26.02228546142578],"type":"VEC3"},{"bufferView":17,"componentType":5126,"count":1023,"max":[0.9940195679664612,1,0.9940195679664612],"min":[-0.9940195679664612,-1,-0.9940195679664612],"type":"VEC3"},{"bufferView":18,"componentType":5126,"count":1023,"max":[1,1],"min":[0,0],"type":"VEC2"},{"bufferView":19,"componentType":5125,"count":5664,"max":[1021],"min":[0],"type":"SCALAR"},{"bufferView":20,"componentType":5126,"count":600,"max":[31.5,31.5,31.5],"min":[-31.5,-31.5,-31.5],"type":"VEC3"},{"bufferView":21,"componentType":5126,"count":600,"max":[1,1,1],"min":[-1,-1,-1],"type":"VEC3"},{"bufferView":22,"componentType":5126,"count":600,"max":[1,1],"min":[0,0],"type":"VEC2"},{"bufferView":23,"componentType":5125,"count":2148,"max":[599],"min":[0],"type":"SCALAR"},{"bufferView":24,"componentType":5126,"count":600,"max":[31.5,31.5,31.5],"min":[-31.5,-31.5,-31.5],"type":"VEC3"},{"bufferView":25,"componentType":5126,"count":600,"max":[1,1,1],"min":[-1,-1,-1],"type":"VEC3"},{"bufferView":26,"componentType":5126,"count":600,"max":[1,1],"min":[0,0],"type":"VEC2"},{"bufferView":27,"componentType":5125,"count":2148,"max":[599],"min":[0],"type":"SCALAR"},{"bufferView":28,"componentType":5126,"count":776,"max":[50.450927734375,48.636810302734375,70.75617218017578],"min":[-50.450927734375,-48.636810302734375,0],"type":"VEC3"},{"bufferView":29,"componentType":5126,"count":776,"max":[0.9986310601234436,0.9988172054290771,1],"min":[-0.9986310601234436,-0.9988172054290771,-1],"type":"VEC3"},{"bufferView":30,"componentType":5126,"count":776,"max":[1,1],"min":[0,0],"type":"VEC2"},{"bufferView":31,"componentType":5125,"count":3072,"max":[775],"min":[0],"type":"SCALAR"},{"bufferView":32,"componentType":5126,"count":776,"max":[50.450927734375,48.636810302734375,70.75617218017578],"min":[-50.450927734375,-48.636810302734375,0],"type":"VEC3"},{"bufferView":33,"componentType":5126,"count":776,"max":[0.9986310601234436,0.9988172054290771,1],"min":[-0.9986310601234436,-0.9988172054290771,-1],"type":"VEC3"},{"bufferView":34,"componentType":5126,"count":776,"max":[1,1],"min":[0,0],"type":"VEC2"},{"bufferView":35,"componentType":5125,"count":3072,"max":[775],"min":[0],"type":"SCALAR"},{"bufferView":36,"componentType":5126,"count":18729,"max":[100.9384765625,89.63862609863281,100.9384765625],"min":[-100.9384765625,3.5248491764068604,-100.9384765625],"type":"VEC3"},{"bufferView":37,"componentType":5126,"count":18729,"max":[0.9999558925628662,1,0.9998049736022949],"min":[-0.9999998807907104,-2.774852671332098e-16,-0.9998874068260193],"type":"VEC3"},{"bufferView":38,"componentType":5125,"count":18729,"max":[18728],"min":[0],"type":"SCALAR"},{"bufferView":39,"componentType":5126,"count":18729,"max":[100.9384765625,89.63862609863281,100.9384765625],"min":[-100.9384765625,3.5248491764068604,-100.9384765625],"type":"VEC3"},{"bufferView":40,"componentType":5126,"count":18729,"max":[0.9999558925628662,1,0.9998049736022949],"min":[-0.9999998807907104,-2.774852671332098e-16,-0.9998874068260193],"type":"VEC3"},{"bufferView":41,"componentType":5125,"count":18729,"max":[18728],"min":[0],"type":"SCALAR"},{"bufferView":42,"componentType":5126,"count":776,"max":[100.5270767211914,98.93218994140625,13],"min":[-100.5270767211914,-98.93218994140625,0],"type":"VEC3"},{"bufferView":43,"componentType":5126,"count":776,"max":[0.9986862540245056,0.9987674951553345,1],"min":[-0.9986862540245056,-0.9987674951553345,-1],"type":"VEC3"},{"bufferView":44,"componentType":5126,"count":776,"max":[1,1],"min":[0,0],"type":"VEC2"},{"bufferView":45,"componentType":5125,"count":3072,"max":[775],"min":[0],"type":"SCALAR"},{"bufferView":46,"componentType":5126,"count":16539,"max":[10.005159378051758,4.629222869873047,10.005159378051758],"min":[-10.005159378051758,-5.005062103271484,-10.005158424377441],"type":"VEC3"},{"bufferView":47,"componentType":5126,"count":16539,"max":[0.999847412109375,0.9641390442848206,0.9998936653137207],"min":[-0.9999842643737793,-1,-0.999833881855011],"type":"VEC3"},{"bufferView":48,"componentType":5125,"count":16539,"max":[16538],"min":[0],"type":"SCALAR"},{"bufferView":49,"componentType":5126,"count":16539,"max":[10.005159378051758,4.629222869873047,10.005159378051758],"min":[-10.005159378051758,-5.005062103271484,-10.005158424377441],"type":"VEC3"},{"bufferView":50,"componentType":5126,"count":16539,"max":[0.999847412109375,0.9641390442848206,0.9998936653137207],"min":[-0.9999842643737793,-1,-0.999833881855011],"type":"VEC3"},{"bufferView":51,"componentType":5125,"count":16539,"max":[16538],"min":[0],"type":"SCALAR"},{"bufferView":52,"componentType":5126,"count":16539,"max":[10.005159378051758,4.629222869873047,10.005159378051758],"min":[-10.005159378051758,-5.005062103271484,-10.005158424377441],"type":"VEC3"},{"bufferView":53,"componentType":5126,"count":16539,"max":[0.999847412109375,0.9641390442848206,0.9998936653137207],"min":[-0.9999842643737793,-1,-0.999833881855011],"type":"VEC3"},{"bufferView":54,"componentType":5125,"count":16539,"max":[16538],"min":[0],"type":"SCALAR"},{"bufferView":55,"componentType":5126,"count":16539,"max":[10.005159378051758,4.629222869873047,10.005159378051758],"min":[-10.005159378051758,-5.005062103271484,-10.005158424377441],"type":"VEC3"},{"bufferView":56,"componentType":5126,"count":16539,"max":[0.999847412109375,0.9641390442848206,0.9998936653137207],"min":[-0.9999842643737793,-1,-0.999833881855011],"type":"VEC3"},{"bufferView":57,"componentType":5125,"count":16539,"max":[16538],"min":[0],"type":"SCALAR"},{"bufferView":58,"componentType":5126,"count":676,"max":[370.2136535644531,11.715757369995117,5],"min":[-11.715749740600586,-370.2136535644531,0],"type":"VEC3"},{"bufferView":59,"componentType":5126,"count":676,"max":[0.9979759454727173,0.9979759454727173,1],"min":[-0.9979759454727173,-0.9979760050773621,-1],"type":"VEC3"},{"bufferView":60,"componentType":5126,"count":676,"max":[1,1],"min":[0,0],"type":"VEC2"},{"bufferView":61,"componentType":5125,"count":1980,"max":[675],"min":[0],"type":"SCALAR"},{"bufferView":62,"componentType":5126,"count":676,"max":[370.2136535644531,11.715757369995117,45],"min":[-11.715749740600586,-370.2136535644531,0],"type":"VEC3"},{"bufferView":63,"componentType":5126,"count":676,"max":[0.9979759454727173,0.9979759454727173,1],"min":[-0.9979759454727173,-0.9979760050773621,-1],"type":"VEC3"},{"bufferView":64,"componentType":5126,"count":676,"max":[1,1],"min":[0,0],"type":"VEC2"},{"bufferView":65,"componentType":5125,"count":2628,"max":[675],"min":[0],"type":"SCALAR"},{"bufferView":66,"componentType":5126,"count":676,"max":[370.2136535644531,11.715757369995117,45],"min":[-11.715749740600586,-370.2136535644531,0],"type":"VEC3"},{"bufferView":67,"componentType":5126,"count":676,"max":[0.9979759454727173,0.9979759454727173,1],"min":[-0.9979759454727173,-0.9979760050773621,-1],"type":"VEC3"},{"bufferView":68,"componentType":5126,"count":676,"max":[1,1],"min":[0,0],"type":"VEC2"},{"bufferView":69,"componentType":5125,"count":2628,"max":[675],"min":[0],"type":"SCALAR"},{"bufferView":70,"componentType":5126,"count":9420,"max":[96.08637237548828,33,131.3721160888672],"min":[-96.08637237548828,-33,-131.3721160888672],"type":"VEC3"},{"bufferView":71,"componentType":5126,"count":9420,"max":[1,1,0.999998152256012],"min":[-1,-1,-0.9999991059303284],"type":"VEC3"},{"bufferView":72,"componentType":5126,"count":776,"max":[52.98311996459961,51.07795333862305,31.32413673400879],"min":[-52.98311996459961,-51.07795333862305,0],"type":"VEC3"},{"bufferView":73,"componentType":5126,"count":776,"max":[0.9986310601234436,0.9988172054290771,1],"min":[-0.9986310601234436,-0.9988172054290771,-1],"type":"VEC3"},{"bufferView":74,"componentType":5126,"count":776,"max":[1,1],"min":[0,0],"type":"VEC2"},{"bufferView":75,"componentType":5125,"count":3072,"max":[775],"min":[0],"type":"SCALAR"},{"bufferView":76,"componentType":5126,"count":776,"max":[54.732887268066406,52.764801025390625,88],"min":[-54.732887268066406,-52.764801025390625,0],"type":"VEC3"},{"bufferView":77,"componentType":5126,"count":776,"max":[0.9986310601234436,0.9988172054290771,1],"min":[-0.9986310601234436,-0.9988172054290771,-1],"type":"VEC3"},{"bufferView":78,"componentType":5126,"count":776,"max":[1,1],"min":[0,0],"type":"VEC2"},{"bufferView":79,"componentType":5125,"count":3072,"max":[775],"min":[0],"type":"SCALAR"},{"bufferView":80,"componentType":5126,"count":12780,"max":[10.005159378051758,5.005062103271484,10.005159378051758],"min":[-10.005159378051758,-5.005062103271484,-10.005158424377441],"type":"VEC3"},{"bufferView":81,"componentType":5126,"count":12780,"max":[0.9997029900550842,0.9999999403953552,0.9998936653137207],"min":[-0.999703586101532,-1,-0.9987818002700806],"type":"VEC3"},{"bufferView":82,"componentType":5125,"count":12780,"max":[12779],"min":[0],"type":"SCALAR"},{"bufferView":83,"componentType":5126,"count":776,"max":[100.5270767211914,98.93218994140625,7],"min":[-100.5270767211914,-98.93218994140625,0],"type":"VEC3"},{"bufferView":84,"componentType":5126,"count":776,"max":[0.9986862540245056,0.9987674951553345,1],"min":[-0.9986862540245056,-0.9987674951553345,-1],"type":"VEC3"},{"bufferView":85,"componentType":5126,"count":776,"max":[1,1],"min":[0,0],"type":"VEC2"},{"bufferView":86,"componentType":5125,"count":2304,"max":[775],"min":[0],"type":"SCALAR"},{"bufferView":87,"componentType":5126,"count":5202,"max":[101.5,14.5,101.5],"min":[-101.5,-14.5,-101.5],"type":"VEC3"},{"bufferView":88,"componentType":5126,"count":5202,"max":[0.999338686466217,1,0.999338686466217],"min":[-0.999338686466217,-1,-0.999338686466217],"type":"VEC3"},{"bufferView":89,"componentType":5126,"count":776,"max":[101.5,101.5,29],"min":[-101.5,-101.5,0],"type":"VEC3"},{"bufferView":90,"componentType":5126,"count":776,"max":[0.9987275004386902,0.9987275004386902,1],"min":[-0.9987275004386902,-0.9987275004386902,-1],"type":"VEC3"},{"bufferView":91,"componentType":5126,"count":776,"max":[1,1],"min":[0,0],"type":"VEC2"},{"bufferView":92,"componentType":5125,"count":3072,"max":[775],"min":[0],"type":"SCALAR"},{"bufferView":93,"componentType":5126,"count":776,"max":[61.32015609741211,59.11520767211914,80],"min":[-61.32015609741211,-59.11520767211914,0],"type":"VEC3"},{"bufferView":94,"componentType":5126,"count":776,"max":[0.9986310601234436,0.9988172054290771,1],"min":[-0.9986310601234436,-0.9988172054290771,-1],"type":"VEC3"},{"bufferView":95,"componentType":5126,"count":776,"max":[1,1],"min":[0,0],"type":"VEC2"},{"bufferView":96,"componentType":5125,"count":3072,"max":[775],"min":[0],"type":"SCALAR"},{"bufferView":97,"componentType":5126,"count":16539,"max":[10.005159378051758,4.629222869873047,10.005159378051758],"min":[-10.005159378051758,-5.005062103271484,-10.005158424377441],"type":"VEC3"},{"bufferView":98,"componentType":5126,"count":16539,"max":[0.999847412109375,0.9641390442848206,0.9998936653137207],"min":[-0.9999842643737793,-1,-0.999833881855011],"type":"VEC3"},{"bufferView":99,"componentType":5125,"count":16539,"max":[16538],"min":[0],"type":"SCALAR"},{"bufferView":100,"componentType":5126,"count":16539,"max":[10.005159378051758,4.629222869873047,10.005159378051758],"min":[-10.005159378051758,-5.005062103271484,-10.005158424377441],"type":"VEC3"},{"bufferView":101,"componentType":5126,"count":16539,"max":[0.999847412109375,0.9641390442848206,0.9998936653137207],"min":[-0.9999842643737793,-1,-0.999833881855011],"type":"VEC3"},{"bufferView":102,"componentType":5125,"count":16539,"max":[16538],"min":[0],"type":"SCALAR"},{"bufferView":103,"componentType":5126,"count":16539,"max":[10.005159378051758,4.629222869873047,10.005159378051758],"min":[-10.005159378051758,-5.005062103271484,-10.005158424377441],"type":"VEC3"},{"bufferView":104,"componentType":5126,"count":16539,"max":[0.999847412109375,0.9641390442848206,0.9998936653137207],"min":[-0.9999842643737793,-1,-0.999833881855011],"type":"VEC3"},{"bufferView":105,"componentType":5125,"count":16539,"max":[16538],"min":[0],"type":"SCALAR"},{"bufferView":106,"componentType":5126,"count":16539,"max":[10.005159378051758,4.629222869873047,10.005159378051758],"min":[-10.005159378051758,-5.005062103271484,-10.005158424377441],"type":"VEC3"},{"bufferView":107,"componentType":5126,"count":16539,"max":[0.999847412109375,0.9641390442848206,0.9998936653137207],"min":[-0.9999842643737793,-1,-0.999833881855011],"type":"VEC3"},{"bufferView":108,"componentType":5125,"count":16539,"max":[16538],"min":[0],"type":"SCALAR"},{"bufferView":109,"componentType":5126,"count":868,"max":[162.3008575439453,0.7235807776451111,8],"min":[-0.8707903027534485,-165.76358032226562,0],"type":"VEC3"},{"bufferView":110,"componentType":5126,"count":868,"max":[0.9991894960403442,0.9997269511222839,1],"min":[-0.9991905689239502,-0.999726414680481,-1],"type":"VEC3"},{"bufferView":111,"componentType":5126,"count":868,"max":[1,1],"min":[0,0],"type":"VEC2"},{"bufferView":112,"componentType":5125,"count":3444,"max":[867],"min":[0],"type":"SCALAR"},{"bufferView":113,"componentType":5126,"count":868,"max":[162.3008575439453,0.7235807776451111,31],"min":[-0.8707903027534485,-165.76358032226562,0],"type":"VEC3"},{"bufferView":114,"componentType":5126,"count":868,"max":[0.9991894960403442,0.9997269511222839,1],"min":[-0.9991905689239502,-0.999726414680481,-1],"type":"VEC3"},{"bufferView":115,"componentType":5126,"count":868,"max":[1,1],"min":[0,0],"type":"VEC2"},{"bufferView":116,"componentType":5125,"count":3444,"max":[867],"min":[0],"type":"SCALAR"},{"bufferView":117,"componentType":5126,"count":868,"max":[162.3008575439453,0.7235807776451111,31],"min":[-0.8707903027534485,-165.76358032226562,0],"type":"VEC3"},{"bufferView":118,"componentType":5126,"count":868,"max":[0.9991894960403442,0.9997269511222839,1],"min":[-0.9991905689239502,-0.999726414680481,-1],"type":"VEC3"},{"bufferView":119,"componentType":5126,"count":868,"max":[1,1],"min":[0,0],"type":"VEC2"},{"bufferView":120,"componentType":5125,"count":3444,"max":[867],"min":[0],"type":"SCALAR"},{"bufferView":121,"componentType":5126,"count":16539,"max":[10.005159378051758,4.629222869873047,10.005159378051758],"min":[-10.005159378051758,-5.005062103271484,-10.005158424377441],"type":"VEC3"},{"bufferView":122,"componentType":5126,"count":16539,"max":[0.999847412109375,0.9641390442848206,0.9998936653137207],"min":[-0.9999842643737793,-1,-0.999833881855011],"type":"VEC3"},{"bufferView":123,"componentType":5125,"count":16539,"max":[16538],"min":[0],"type":"SCALAR"},{"bufferView":124,"componentType":5126,"count":16539,"max":[10.005159378051758,4.629222869873047,10.005159378051758],"min":[-10.005159378051758,-5.005062103271484,-10.005158424377441],"type":"VEC3"},{"bufferView":125,"componentType":5126,"count":16539,"max":[0.999847412109375,0.9641390442848206,0.9998936653137207],"min":[-0.9999842643737793,-1,-0.999833881855011],"type":"VEC3"},{"bufferView":126,"componentType":5125,"count":16539,"max":[16538],"min":[0],"type":"SCALAR"},{"bufferView":127,"componentType":5126,"count":4,"max":[1401.134521484375,1250.3895263671875,0],"min":[-1401.134521484375,-1250.3895263671875,0],"type":"VEC3"},{"bufferView":128,"componentType":5126,"count":4,"max":[0,0,1],"min":[0,0,1],"type":"VEC3"},{"bufferView":129,"componentType":5126,"count":4,"max":[1,1],"min":[0,0],"type":"VEC2"},{"bufferView":130,"componentType":5125,"count":6,"max":[3],"min":[0],"type":"SCALAR"}],"meshes":[{"primitives":[{"mode":4,"attributes":{"POSITION":0,"NORMAL":1,"TEXCOORD_0":2},"extras":{"shape":{"points":[-1018,789,-1018,789,-1018,789,0,1018,789,1018,789,1018,789,0,1018,-789,1018,-789,1018,-789,0,-1018,-789,-1018,-789,-1018,-789,0],"shapeHoles":[],"isClosed":true,"roundness":0},"parameters":{"width":2036,"depth":0,"cornerRadius":[0,0,0,0],"cornerType":0,"extrudeBevelSize":0,"extrudeBevelSegments":1,"height":1578,"type":"RectangleGeometry"},"ui":{"enabledIndieCorners":false},"type":"RectangleGeometry"},"indices":3,"material":0}]},{"primitives":[{"mode":4,"attributes":{"POSITION":4,"NORMAL":5,"TEXCOORD_0":6},"extras":{"parameters":{"width":47.5427923828629,"widthSegments":64,"heightSegments":64,"phiStart":0,"phiLength":6.283185307179586,"thetaStart":0,"thetaLength":180,"height":47.5427923828629,"depth":47.5427923828629,"type":"SphereGeometry"},"type":"SphereGeometry"},"indices":7,"material":1}]},{"primitives":[{"mode":4,"attributes":{"POSITION":8,"NORMAL":9,"TEXCOORD_0":10},"extras":{"parameters":{"width":47.5427923828629,"widthSegments":64,"heightSegments":64,"phiStart":0,"phiLength":6.283185307179586,"thetaStart":0,"thetaLength":180,"height":47.5427923828629,"depth":47.5427923828629,"type":"SphereGeometry"},"type":"SphereGeometry"},"indices":11,"material":2}]},{"primitives":[{"mode":4,"attributes":{"POSITION":12,"NORMAL":13,"TEXCOORD_0":14},"extras":{"parameters":{"width":47.5427923828629,"widthSegments":64,"heightSegments":64,"phiStart":0,"phiLength":6.283185307179586,"thetaStart":0,"thetaLength":180,"height":47.5427923828629,"depth":47.5427923828629,"type":"SphereGeometry"},"type":"SphereGeometry"},"indices":15,"material":0}]},{"primitives":[{"mode":4,"attributes":{"POSITION":16,"NORMAL":17,"TEXCOORD_0":18},"extras":{"parameters":{"width":59,"radialSegments":32,"heightSegments":8,"openEnded":false,"thetaStart":0,"thetaLength":360,"cornerRadiusTop":8,"cornerRadiusBottom":8,"cornerSegments":8,"depth":59,"height":59,"type":"ConeGeometry"},"type":"ConeGeometry"},"indices":19,"material":1}]},{"primitives":[{"mode":4,"attributes":{"POSITION":20,"NORMAL":21,"TEXCOORD_0":22},"extras":{"parameters":{"width":63,"widthSegments":1,"heightSegments":1,"depthSegments":1,"cornerRadius":8,"cornerSegments":8,"height":63,"depth":63,"type":"CubeGeometry"},"type":"CubeGeometry"},"indices":23,"material":2}]},{"primitives":[{"mode":4,"attributes":{"POSITION":24,"NORMAL":25,"TEXCOORD_0":26},"extras":{"parameters":{"width":63,"widthSegments":1,"heightSegments":1,"depthSegments":1,"cornerRadius":8,"cornerSegments":8,"height":63,"depth":63,"type":"CubeGeometry"},"type":"CubeGeometry"},"indices":27,"material":0}]},{"primitives":[{"mode":4,"attributes":{"POSITION":28,"NORMAL":29,"TEXCOORD_0":30},"extras":{"shape":{"points":[-50.45092632487152,0,-50.45092632487152,-26.861369180067918,-50.45092632487152,26.861369180067918,0,0,48.63681133653479,-27.863277222509897,48.63681133653479,27.863277222509897,48.63681133653479,0,50.45092632487152,0,50.45092632487152,26.861369180067918,50.45092632487152,-26.861369180067918,0,0,-48.63681133653479,27.863277222509897,-48.63681133653479,-27.863277222509897,-48.63681133653479,0],"shapeHoles":[{"points":[0,-43.28676208951596,-24.798316728033807,-43.28676208951596,24.798316728033807,-43.28676208951596,0,44.90132442913565,0,44.90132442913565,-23.906618570260445,44.90132442913565,23.906618570260445,0,0,43.28676208951596,24.798316728033807,43.28676208951596,-24.798316728033807,43.28676208951596,0,-44.90132442913565,0,-44.90132442913565,23.906618570260445,-44.90132442913565,-23.906618570260445,0],"shapeHoles":[],"isClosed":true,"roundness":0}],"isClosed":true,"roundness":0},"parameters":{"width":100.90185264974303,"depth":70.75617296334508,"spikes":64,"angle":360,"innerRadius":89,"extrudeBevelSize":2,"extrudeBevelSegments":1,"height":97.27362267306958,"type":"EllipseGeometry"},"type":"EllipseGeometry"},"indices":31,"material":1}]},{"primitives":[{"mode":4,"attributes":{"POSITION":32,"NORMAL":33,"TEXCOORD_0":34},"extras":{"shape":{"points":[-50.45092632487152,0,-50.45092632487152,-26.861369180067918,-50.45092632487152,26.861369180067918,0,0,48.63681133653479,-27.863277222509897,48.63681133653479,27.863277222509897,48.63681133653479,0,50.45092632487152,0,50.45092632487152,26.861369180067918,50.45092632487152,-26.861369180067918,0,0,-48.63681133653479,27.863277222509897,-48.63681133653479,-27.863277222509897,-48.63681133653479,0],"shapeHoles":[{"points":[0,-43.28676208951596,-24.798316728033807,-43.28676208951596,24.798316728033807,-43.28676208951596,0,44.90132442913565,0,44.90132442913565,-23.906618570260445,44.90132442913565,23.906618570260445,0,0,43.28676208951596,24.798316728033807,43.28676208951596,-24.798316728033807,43.28676208951596,0,-44.90132442913565,0,-44.90132442913565,23.906618570260445,-44.90132442913565,-23.906618570260445,0],"shapeHoles":[],"isClosed":true,"roundness":0}],"isClosed":true,"roundness":0},"parameters":{"width":100.90185264974303,"depth":70.75617296334508,"spikes":64,"angle":360,"innerRadius":89,"extrudeBevelSize":2,"extrudeBevelSegments":1,"height":97.27362267306958,"type":"EllipseGeometry"},"type":"EllipseGeometry"},"indices":35,"material":2}]},{"primitives":[{"mode":4,"attributes":{"POSITION":36,"NORMAL":37},"extras":{"parameters":{"width":201.876953125,"height":86.11377716064453,"depth":201.876953125}},"indices":38,"material":0}]},{"primitives":[{"mode":4,"attributes":{"POSITION":39,"NORMAL":40},"extras":{"parameters":{"width":201.876953125,"height":86.11377716064453,"depth":201.876953125}},"indices":41,"material":1}]},{"primitives":[{"mode":4,"attributes":{"POSITION":42,"NORMAL":43,"TEXCOORD_0":44},"extras":{"shape":{"points":[-100.52707602370897,0,-100.52707602370897,-54.63873831908363,-100.52707602370897,54.63873831908363,0,0,98.93218731618077,-55.519571029879685,98.93218731618077,55.519571029879685,98.93218731618077,0,100.52707602370897,0,100.52707602370897,54.63873831908363,100.52707602370897,-54.63873831908363,0,0,-98.93218731618077,55.519571029879685,-98.93218731618077,-55.519571029879685,-98.93218731618077,0],"shapeHoles":[{"points":[0,-54.41270302389942,-30.535764066433824,-54.41270302389942,30.535764066433824,-54.41270302389942,0,55.28989181303993,0,55.28989181303993,-30.051306075495994,55.28989181303993,30.051306075495994,0,0,54.41270302389942,30.535764066433824,54.41270302389942,-30.535764066433824,54.41270302389942,0,-55.28989181303993,0,-55.28989181303993,30.051306075495994,-55.28989181303993,-30.051306075495994,0],"shapeHoles":[],"isClosed":true,"roundness":0}],"isClosed":true,"roundness":0},"parameters":{"width":201.05415204741794,"depth":13,"spikes":64,"angle":360,"innerRadius":55,"extrudeBevelSize":4,"extrudeBevelSegments":1,"height":197.86437463236155,"type":"EllipseGeometry"},"type":"EllipseGeometry"},"indices":45,"material":2}]},{"primitives":[{"mode":4,"attributes":{"POSITION":46,"NORMAL":47},"extras":{"parameters":{"width":20.010318756103516,"height":9.634284973144531,"depth":20.010318756103516}},"indices":48,"material":0}]},{"primitives":[{"mode":4,"attributes":{"POSITION":49,"NORMAL":50},"extras":{"parameters":{"width":20.010318756103516,"height":9.634284973144531,"depth":20.010318756103516}},"indices":51,"material":1}]},{"primitives":[{"mode":4,"attributes":{"POSITION":52,"NORMAL":53},"extras":{"parameters":{"width":20.010318756103516,"height":9.634284973144531,"depth":20.010318756103516}},"indices":54,"material":2}]},{"primitives":[{"mode":4,"attributes":{"POSITION":55,"NORMAL":56},"extras":{"parameters":{"width":20.010318756103516,"height":9.634284973144531,"depth":20.010318756103516}},"indices":57,"material":0}]},{"primitives":[{"mode":4,"attributes":{"POSITION":58,"NORMAL":59,"TEXCOORD_0":60},"extras":{"parameters":{"width":381.9294,"subdivisions":12,"roundness":0,"extrudeBevelSize":3,"extrudeBevelSegments":1,"windingRule":0,"shape":{"points":[{"fi":0,"id":"654f2957-3b2d-4dab-8bd4-16fa7e81aaee","data":{"roundness":0,"position":[179.2489,-285.31489999999997],"areControlsDirectionsMirrored":true,"controlPrevious":{"position":[179.2489,-285.31489999999997]},"controlNext":{"position":[179.2489,-285.31489999999997]}}},{"fi":1,"id":"0a123411-cd9c-4699-8894-f1ac1fd572ba","data":{"roundness":0,"position":[252.43189999999998,-358.4979],"areControlsDirectionsMirrored":true,"controlPrevious":{"position":[252.43189999999998,-358.4979]},"controlNext":{"position":[268.0519,-374.1189]}}},{"fi":2,"id":"0b878f90-b12f-4df3-a715-2b979d49f6ab","data":{"roundness":0,"position":[308.99989999999997,-358.4979],"areControlsDirectionsMirrored":true,"controlPrevious":{"position":[293.3789,-374.1189]},"controlNext":{"position":[308.99989999999997,-358.4979]}}},{"fi":3,"id":"f3ca0e45-2164-43ff-9aa3-d257b2b8a5f1","data":{"roundness":0,"position":[358.4979,-308.99989999999997],"areControlsDirectionsMirrored":true,"controlPrevious":{"position":[358.4979,-308.99989999999997]},"controlNext":{"position":[374.1189,-293.3789]}}},{"fi":4,"id":"da5f344b-d481-4850-998e-2f5624098294","data":{"roundness":0,"position":[358.4979,-252.43189999999998],"areControlsDirectionsMirrored":true,"controlPrevious":{"position":[374.1189,-268.0519]},"controlNext":{"position":[358.4979,-252.43189999999998]}}},{"fi":5,"id":"b34c9998-902b-47c4-a962-4829871f532e","data":{"roundness":0,"position":[285.31489999999997,-179.2489],"areControlsDirectionsMirrored":true,"controlPrevious":{"position":[285.31489999999997,-179.2489]},"controlNext":{"position":[285.31489999999997,-179.2489]}}},{"fi":6,"id":"146c5f0d-cf78-4244-9534-554314b5cc8d","data":{"roundness":0,"position":[358.4979,-106.0659],"areControlsDirectionsMirrored":true,"controlPrevious":{"position":[358.4979,-106.0659]},"controlNext":{"position":[374.1189,-90.4449]}}},{"fi":7,"id":"60551f7e-c99a-4a97-b01f-0311340af19c","data":{"roundness":0,"position":[358.4979,-49.4974],"areControlsDirectionsMirrored":true,"controlPrevious":{"position":[374.1189,-65.11840000000001]},"controlNext":{"position":[358.4979,-49.4974]}}},{"fi":8,"id":"531cfaa7-62b8-410a-bec3-a31273970ba1","data":{"roundness":0,"position":[308.99989999999997,0],"areControlsDirectionsMirrored":true,"controlPrevious":{"position":[308.99989999999997,0]},"controlNext":{"position":[293.3789,15.621009999999998]}}},{"fi":9,"id":"fa922dce-74b5-46d5-bbb7-e485dc78a33e","data":{"roundness":0,"position":[252.43189999999998,0],"areControlsDirectionsMirrored":true,"controlPrevious":{"position":[268.05289999999997,15.621009999999998]},"controlNext":{"position":[252.43189999999998,0]}}},{"fi":10,"id":"dee1e554-327c-4673-ae7a-5f308edb1684","data":{"roundness":0,"position":[179.2489,-73.1829],"areControlsDirectionsMirrored":true,"controlPrevious":{"position":[179.2489,-73.1829]},"controlNext":{"position":[179.2489,-73.1829]}}},{"fi":11,"id":"cf418d53-fab9-4d2a-9520-6252a770372b","data":{"roundness":0,"position":[106.0659,0],"areControlsDirectionsMirrored":true,"controlPrevious":{"position":[106.0659,0]},"controlNext":{"position":[90.4449,15.620999999999999]}}},{"fi":12,"id":"86a7f2ba-80ee-42d1-8867-60ef425e621f","data":{"roundness":0,"position":[49.4974,0],"areControlsDirectionsMirrored":true,"controlPrevious":{"position":[65.11840000000001,15.620999999999999]},"controlNext":{"position":[49.4974,0]}}},{"fi":13,"id":"f08a5d88-f46e-46ed-9c5b-c5ab2997cdd2","data":{"roundness":0,"position":[0,-49.4974],"areControlsDirectionsMirrored":true,"controlPrevious":{"position":[0,-49.4974]},"controlNext":{"position":[-15.620999999999999,-65.11840000000001]}}},{"fi":14,"id":"9d4f5ab6-8369-43a6-8a22-cb35b0bacdcb","data":{"roundness":0,"position":[0,-106.0659],"areControlsDirectionsMirrored":true,"controlPrevious":{"position":[-15.620999999999999,-90.4449]},"controlNext":{"position":[0,-106.0659]}}},{"fi":15,"id":"f3d61884-1dfb-43c1-8ca2-14033951215f","data":{"roundness":0,"position":[73.1829,-179.2489],"areControlsDirectionsMirrored":true,"controlPrevious":{"position":[73.1829,-179.2489]},"controlNext":{"position":[73.1829,-179.2489]}}},{"fi":16,"id":"b23b5d24-a176-4b55-9037-49990625454f","data":{"roundness":0,"position":[0.0003000000000010772,-252.43189999999998],"areControlsDirectionsMirrored":true,"controlPrevious":{"position":[0.0003000000000010772,-252.43189999999998]},"controlNext":{"position":[-15.62064,-268.05289999999997]}}},{"fi":17,"id":"982d1d1a-821c-4114-82a1-ac8fbf4a04fb","data":{"roundness":0,"position":[0.0003000000000010772,-308.99989999999997],"areControlsDirectionsMirrored":true,"controlPrevious":{"position":[-15.620629999999998,-293.3789]},"controlNext":{"position":[0.0003000000000010772,-308.99989999999997]}}},{"fi":18,"id":"6f5fefcc-2ccc-4021-9508-0de6371893db","data":{"roundness":0,"position":[49.4978,-358.4979],"areControlsDirectionsMirrored":true,"controlPrevious":{"position":[49.4978,-358.4979]},"controlNext":{"position":[65.11880000000001,-374.1189]}}},{"fi":19,"id":"1e4ac932-3c55-4077-9eb4-bb2a56ccda76","data":{"roundness":0,"position":[106.0659,-358.4979],"areControlsDirectionsMirrored":true,"controlPrevious":{"position":[90.44590000000001,-374.1189]},"controlNext":{"position":[106.0659,-358.4979]}}}],"isClosed":true,"roundness":0,"shapeHoles":[]},"type":"VectorGeometry","height":381.92940749999997,"depth":5},"shape":{"points":[179.2489,-285.31489999999997,179.2489,-285.31489999999997,179.2489,-285.31489999999997,0,252.43189999999998,-358.4979,252.43189999999998,-358.4979,268.0519,-374.1189,0,308.99989999999997,-358.4979,293.3789,-374.1189,308.99989999999997,-358.4979,0,358.4979,-308.99989999999997,358.4979,-308.99989999999997,374.1189,-293.3789,0,358.4979,-252.43189999999998,374.1189,-268.0519,358.4979,-252.43189999999998,0,285.31489999999997,-179.2489,285.31489999999997,-179.2489,285.31489999999997,-179.2489,0,358.4979,-106.0659,358.4979,-106.0659,374.1189,-90.4449,0,358.4979,-49.4974,374.1189,-65.11840000000001,358.4979,-49.4974,0,308.99989999999997,0,308.99989999999997,0,293.3789,15.621009999999998,0,252.43189999999998,0,268.05289999999997,15.621009999999998,252.43189999999998,0,0,179.2489,-73.1829,179.2489,-73.1829,179.2489,-73.1829,0,106.0659,0,106.0659,0,90.4449,15.620999999999999,0,49.4974,0,65.11840000000001,15.620999999999999,49.4974,0,0,0,-49.4974,0,-49.4974,-15.620999999999999,-65.11840000000001,0,0,-106.0659,-15.620999999999999,-90.4449,0,-106.0659,0,73.1829,-179.2489,73.1829,-179.2489,73.1829,-179.2489,0,0.0003000000000010772,-252.43189999999998,0.0003000000000010772,-252.43189999999998,-15.62064,-268.05289999999997,0,0.0003000000000010772,-308.99989999999997,-15.620629999999998,-293.3789,0.0003000000000010772,-308.99989999999997,0,49.4978,-358.4979,49.4978,-358.4979,65.11880000000001,-374.1189,0,106.0659,-358.4979,90.44590000000001,-374.1189,106.0659,-358.4979,0],"shapeHoles":[],"isClosed":true,"roundness":0},"type":"VectorGeometry"},"indices":61,"material":1}]},{"primitives":[{"mode":4,"attributes":{"POSITION":62,"NORMAL":63,"TEXCOORD_0":64},"extras":{"parameters":{"width":381.9294,"subdivisions":12,"roundness":0,"extrudeBevelSize":2,"extrudeBevelSegments":1,"windingRule":0,"shape":{"points":[{"fi":0,"id":"654f2957-3b2d-4dab-8bd4-16fa7e81aaee","data":{"roundness":0,"position":[179.2489,-285.31489999999997],"areControlsDirectionsMirrored":true,"controlPrevious":{"position":[179.2489,-285.31489999999997]},"controlNext":{"position":[179.2489,-285.31489999999997]}}},{"fi":1,"id":"0a123411-cd9c-4699-8894-f1ac1fd572ba","data":{"roundness":0,"position":[252.43189999999998,-358.4979],"areControlsDirectionsMirrored":true,"controlPrevious":{"position":[252.43189999999998,-358.4979]},"controlNext":{"position":[268.0519,-374.1189]}}},{"fi":2,"id":"0b878f90-b12f-4df3-a715-2b979d49f6ab","data":{"roundness":0,"position":[308.99989999999997,-358.4979],"areControlsDirectionsMirrored":true,"controlPrevious":{"position":[293.3789,-374.1189]},"controlNext":{"position":[308.99989999999997,-358.4979]}}},{"fi":3,"id":"f3ca0e45-2164-43ff-9aa3-d257b2b8a5f1","data":{"roundness":0,"position":[358.4979,-308.99989999999997],"areControlsDirectionsMirrored":true,"controlPrevious":{"position":[358.4979,-308.99989999999997]},"controlNext":{"position":[374.1189,-293.3789]}}},{"fi":4,"id":"da5f344b-d481-4850-998e-2f5624098294","data":{"roundness":0,"position":[358.4979,-252.43189999999998],"areControlsDirectionsMirrored":true,"controlPrevious":{"position":[374.1189,-268.0519]},"controlNext":{"position":[358.4979,-252.43189999999998]}}},{"fi":5,"id":"b34c9998-902b-47c4-a962-4829871f532e","data":{"roundness":0,"position":[285.31489999999997,-179.2489],"areControlsDirectionsMirrored":true,"controlPrevious":{"position":[285.31489999999997,-179.2489]},"controlNext":{"position":[285.31489999999997,-179.2489]}}},{"fi":6,"id":"146c5f0d-cf78-4244-9534-554314b5cc8d","data":{"roundness":0,"position":[358.4979,-106.0659],"areControlsDirectionsMirrored":true,"controlPrevious":{"position":[358.4979,-106.0659]},"controlNext":{"position":[374.1189,-90.4449]}}},{"fi":7,"id":"60551f7e-c99a-4a97-b01f-0311340af19c","data":{"roundness":0,"position":[358.4979,-49.4974],"areControlsDirectionsMirrored":true,"controlPrevious":{"position":[374.1189,-65.11840000000001]},"controlNext":{"position":[358.4979,-49.4974]}}},{"fi":8,"id":"531cfaa7-62b8-410a-bec3-a31273970ba1","data":{"roundness":0,"position":[308.99989999999997,0],"areControlsDirectionsMirrored":true,"controlPrevious":{"position":[308.99989999999997,0]},"controlNext":{"position":[293.3789,15.621009999999998]}}},{"fi":9,"id":"fa922dce-74b5-46d5-bbb7-e485dc78a33e","data":{"roundness":0,"position":[252.43189999999998,0],"areControlsDirectionsMirrored":true,"controlPrevious":{"position":[268.05289999999997,15.621009999999998]},"controlNext":{"position":[252.43189999999998,0]}}},{"fi":10,"id":"dee1e554-327c-4673-ae7a-5f308edb1684","data":{"roundness":0,"position":[179.2489,-73.1829],"areControlsDirectionsMirrored":true,"controlPrevious":{"position":[179.2489,-73.1829]},"controlNext":{"position":[179.2489,-73.1829]}}},{"fi":11,"id":"cf418d53-fab9-4d2a-9520-6252a770372b","data":{"roundness":0,"position":[106.0659,0],"areControlsDirectionsMirrored":true,"controlPrevious":{"position":[106.0659,0]},"controlNext":{"position":[90.4449,15.620999999999999]}}},{"fi":12,"id":"86a7f2ba-80ee-42d1-8867-60ef425e621f","data":{"roundness":0,"position":[49.4974,0],"areControlsDirectionsMirrored":true,"controlPrevious":{"position":[65.11840000000001,15.620999999999999]},"controlNext":{"position":[49.4974,0]}}},{"fi":13,"id":"f08a5d88-f46e-46ed-9c5b-c5ab2997cdd2","data":{"roundness":0,"position":[0,-49.4974],"areControlsDirectionsMirrored":true,"controlPrevious":{"position":[0,-49.4974]},"controlNext":{"position":[-15.620999999999999,-65.11840000000001]}}},{"fi":14,"id":"9d4f5ab6-8369-43a6-8a22-cb35b0bacdcb","data":{"roundness":0,"position":[0,-106.0659],"areControlsDirectionsMirrored":true,"controlPrevious":{"position":[-15.620999999999999,-90.4449]},"controlNext":{"position":[0,-106.0659]}}},{"fi":15,"id":"f3d61884-1dfb-43c1-8ca2-14033951215f","data":{"roundness":0,"position":[73.1829,-179.2489],"areControlsDirectionsMirrored":true,"controlPrevious":{"position":[73.1829,-179.2489]},"controlNext":{"position":[73.1829,-179.2489]}}},{"fi":16,"id":"b23b5d24-a176-4b55-9037-49990625454f","data":{"roundness":0,"position":[0.0003000000000010772,-252.43189999999998],"areControlsDirectionsMirrored":true,"controlPrevious":{"position":[0.0003000000000010772,-252.43189999999998]},"controlNext":{"position":[-15.62064,-268.05289999999997]}}},{"fi":17,"id":"982d1d1a-821c-4114-82a1-ac8fbf4a04fb","data":{"roundness":0,"position":[0.0003000000000010772,-308.99989999999997],"areControlsDirectionsMirrored":true,"controlPrevious":{"position":[-15.620629999999998,-293.3789]},"controlNext":{"position":[0.0003000000000010772,-308.99989999999997]}}},{"fi":18,"id":"6f5fefcc-2ccc-4021-9508-0de6371893db","data":{"roundness":0,"position":[49.4978,-358.4979],"areControlsDirectionsMirrored":true,"controlPrevious":{"position":[49.4978,-358.4979]},"controlNext":{"position":[65.11880000000001,-374.1189]}}},{"fi":19,"id":"1e4ac932-3c55-4077-9eb4-bb2a56ccda76","data":{"roundness":0,"position":[106.0659,-358.4979],"areControlsDirectionsMirrored":true,"controlPrevious":{"position":[90.44590000000001,-374.1189]},"controlNext":{"position":[106.0659,-358.4979]}}}],"isClosed":true,"roundness":0,"shapeHoles":[]},"type":"VectorGeometry","height":381.92940749999997,"depth":45},"shape":{"points":[179.2489,-285.31489999999997,179.2489,-285.31489999999997,179.2489,-285.31489999999997,0,252.43189999999998,-358.4979,252.43189999999998,-358.4979,268.0519,-374.1189,0,308.99989999999997,-358.4979,293.3789,-374.1189,308.99989999999997,-358.4979,0,358.4979,-308.99989999999997,358.4979,-308.99989999999997,374.1189,-293.3789,0,358.4979,-252.43189999999998,374.1189,-268.0519,358.4979,-252.43189999999998,0,285.31489999999997,-179.2489,285.31489999999997,-179.2489,285.31489999999997,-179.2489,0,358.4979,-106.0659,358.4979,-106.0659,374.1189,-90.4449,0,358.4979,-49.4974,374.1189,-65.11840000000001,358.4979,-49.4974,0,308.99989999999997,0,308.99989999999997,0,293.3789,15.621009999999998,0,252.43189999999998,0,268.05289999999997,15.621009999999998,252.43189999999998,0,0,179.2489,-73.1829,179.2489,-73.1829,179.2489,-73.1829,0,106.0659,0,106.0659,0,90.4449,15.620999999999999,0,49.4974,0,65.11840000000001,15.620999999999999,49.4974,0,0,0,-49.4974,0,-49.4974,-15.620999999999999,-65.11840000000001,0,0,-106.0659,-15.620999999999999,-90.4449,0,-106.0659,0,73.1829,-179.2489,73.1829,-179.2489,73.1829,-179.2489,0,0.0003000000000010772,-252.43189999999998,0.0003000000000010772,-252.43189999999998,-15.62064,-268.05289999999997,0,0.0003000000000010772,-308.99989999999997,-15.620629999999998,-293.3789,0.0003000000000010772,-308.99989999999997,0,49.4978,-358.4979,49.4978,-358.4979,65.11880000000001,-374.1189,0,106.0659,-358.4979,90.44590000000001,-374.1189,106.0659,-358.4979,0],"shapeHoles":[],"isClosed":true,"roundness":0},"type":"VectorGeometry"},"indices":65,"material":2}]},{"primitives":[{"mode":4,"attributes":{"POSITION":66,"NORMAL":67,"TEXCOORD_0":68},"extras":{"parameters":{"width":381.9294,"subdivisions":12,"roundness":0,"extrudeBevelSize":2,"extrudeBevelSegments":1,"windingRule":0,"shape":{"points":[{"fi":0,"id":"654f2957-3b2d-4dab-8bd4-16fa7e81aaee","data":{"roundness":0,"position":[179.2489,-285.31489999999997],"areControlsDirectionsMirrored":true,"controlPrevious":{"position":[179.2489,-285.31489999999997]},"controlNext":{"position":[179.2489,-285.31489999999997]}}},{"fi":1,"id":"0a123411-cd9c-4699-8894-f1ac1fd572ba","data":{"roundness":0,"position":[252.43189999999998,-358.4979],"areControlsDirectionsMirrored":true,"controlPrevious":{"position":[252.43189999999998,-358.4979]},"controlNext":{"position":[268.0519,-374.1189]}}},{"fi":2,"id":"0b878f90-b12f-4df3-a715-2b979d49f6ab","data":{"roundness":0,"position":[308.99989999999997,-358.4979],"areControlsDirectionsMirrored":true,"controlPrevious":{"position":[293.3789,-374.1189]},"controlNext":{"position":[308.99989999999997,-358.4979]}}},{"fi":3,"id":"f3ca0e45-2164-43ff-9aa3-d257b2b8a5f1","data":{"roundness":0,"position":[358.4979,-308.99989999999997],"areControlsDirectionsMirrored":true,"controlPrevious":{"position":[358.4979,-308.99989999999997]},"controlNext":{"position":[374.1189,-293.3789]}}},{"fi":4,"id":"da5f344b-d481-4850-998e-2f5624098294","data":{"roundness":0,"position":[358.4979,-252.43189999999998],"areControlsDirectionsMirrored":true,"controlPrevious":{"position":[374.1189,-268.0519]},"controlNext":{"position":[358.4979,-252.43189999999998]}}},{"fi":5,"id":"b34c9998-902b-47c4-a962-4829871f532e","data":{"roundness":0,"position":[285.31489999999997,-179.2489],"areControlsDirectionsMirrored":true,"controlPrevious":{"position":[285.31489999999997,-179.2489]},"controlNext":{"position":[285.31489999999997,-179.2489]}}},{"fi":6,"id":"146c5f0d-cf78-4244-9534-554314b5cc8d","data":{"roundness":0,"position":[358.4979,-106.0659],"areControlsDirectionsMirrored":true,"controlPrevious":{"position":[358.4979,-106.0659]},"controlNext":{"position":[374.1189,-90.4449]}}},{"fi":7,"id":"60551f7e-c99a-4a97-b01f-0311340af19c","data":{"roundness":0,"position":[358.4979,-49.4974],"areControlsDirectionsMirrored":true,"controlPrevious":{"position":[374.1189,-65.11840000000001]},"controlNext":{"position":[358.4979,-49.4974]}}},{"fi":8,"id":"531cfaa7-62b8-410a-bec3-a31273970ba1","data":{"roundness":0,"position":[308.99989999999997,0],"areControlsDirectionsMirrored":true,"controlPrevious":{"position":[308.99989999999997,0]},"controlNext":{"position":[293.3789,15.621009999999998]}}},{"fi":9,"id":"fa922dce-74b5-46d5-bbb7-e485dc78a33e","data":{"roundness":0,"position":[252.43189999999998,0],"areControlsDirectionsMirrored":true,"controlPrevious":{"position":[268.05289999999997,15.621009999999998]},"controlNext":{"position":[252.43189999999998,0]}}},{"fi":10,"id":"dee1e554-327c-4673-ae7a-5f308edb1684","data":{"roundness":0,"position":[179.2489,-73.1829],"areControlsDirectionsMirrored":true,"controlPrevious":{"position":[179.2489,-73.1829]},"controlNext":{"position":[179.2489,-73.1829]}}},{"fi":11,"id":"cf418d53-fab9-4d2a-9520-6252a770372b","data":{"roundness":0,"position":[106.0659,0],"areControlsDirectionsMirrored":true,"controlPrevious":{"position":[106.0659,0]},"controlNext":{"position":[90.4449,15.620999999999999]}}},{"fi":12,"id":"86a7f2ba-80ee-42d1-8867-60ef425e621f","data":{"roundness":0,"position":[49.4974,0],"areControlsDirectionsMirrored":true,"controlPrevious":{"position":[65.11840000000001,15.620999999999999]},"controlNext":{"position":[49.4974,0]}}},{"fi":13,"id":"f08a5d88-f46e-46ed-9c5b-c5ab2997cdd2","data":{"roundness":0,"position":[0,-49.4974],"areControlsDirectionsMirrored":true,"controlPrevious":{"position":[0,-49.4974]},"controlNext":{"position":[-15.620999999999999,-65.11840000000001]}}},{"fi":14,"id":"9d4f5ab6-8369-43a6-8a22-cb35b0bacdcb","data":{"roundness":0,"position":[0,-106.0659],"areControlsDirectionsMirrored":true,"controlPrevious":{"position":[-15.620999999999999,-90.4449]},"controlNext":{"position":[0,-106.0659]}}},{"fi":15,"id":"f3d61884-1dfb-43c1-8ca2-14033951215f","data":{"roundness":0,"position":[73.1829,-179.2489],"areControlsDirectionsMirrored":true,"controlPrevious":{"position":[73.1829,-179.2489]},"controlNext":{"position":[73.1829,-179.2489]}}},{"fi":16,"id":"b23b5d24-a176-4b55-9037-49990625454f","data":{"roundness":0,"position":[0.0003000000000010772,-252.43189999999998],"areControlsDirectionsMirrored":true,"controlPrevious":{"position":[0.0003000000000010772,-252.43189999999998]},"controlNext":{"position":[-15.62064,-268.05289999999997]}}},{"fi":17,"id":"982d1d1a-821c-4114-82a1-ac8fbf4a04fb","data":{"roundness":0,"position":[0.0003000000000010772,-308.99989999999997],"areControlsDirectionsMirrored":true,"controlPrevious":{"position":[-15.620629999999998,-293.3789]},"controlNext":{"position":[0.0003000000000010772,-308.99989999999997]}}},{"fi":18,"id":"6f5fefcc-2ccc-4021-9508-0de6371893db","data":{"roundness":0,"position":[49.4978,-358.4979],"areControlsDirectionsMirrored":true,"controlPrevious":{"position":[49.4978,-358.4979]},"controlNext":{"position":[65.11880000000001,-374.1189]}}},{"fi":19,"id":"1e4ac932-3c55-4077-9eb4-bb2a56ccda76","data":{"roundness":0,"position":[106.0659,-358.4979],"areControlsDirectionsMirrored":true,"controlPrevious":{"position":[90.44590000000001,-374.1189]},"controlNext":{"position":[106.0659,-358.4979]}}}],"isClosed":true,"roundness":0,"shapeHoles":[]},"type":"VectorGeometry","height":381.92940749999997,"depth":45},"shape":{"points":[179.2489,-285.31489999999997,179.2489,-285.31489999999997,179.2489,-285.31489999999997,0,252.43189999999998,-358.4979,252.43189999999998,-358.4979,268.0519,-374.1189,0,308.99989999999997,-358.4979,293.3789,-374.1189,308.99989999999997,-358.4979,0,358.4979,-308.99989999999997,358.4979,-308.99989999999997,374.1189,-293.3789,0,358.4979,-252.43189999999998,374.1189,-268.0519,358.4979,-252.43189999999998,0,285.31489999999997,-179.2489,285.31489999999997,-179.2489,285.31489999999997,-179.2489,0,358.4979,-106.0659,358.4979,-106.0659,374.1189,-90.4449,0,358.4979,-49.4974,374.1189,-65.11840000000001,358.4979,-49.4974,0,308.99989999999997,0,308.99989999999997,0,293.3789,15.621009999999998,0,252.43189999999998,0,268.05289999999997,15.621009999999998,252.43189999999998,0,0,179.2489,-73.1829,179.2489,-73.1829,179.2489,-73.1829,0,106.0659,0,106.0659,0,90.4449,15.620999999999999,0,49.4974,0,65.11840000000001,15.620999999999999,49.4974,0,0,0,-49.4974,0,-49.4974,-15.620999999999999,-65.11840000000001,0,0,-106.0659,-15.620999999999999,-90.4449,0,-106.0659,0,73.1829,-179.2489,73.1829,-179.2489,73.1829,-179.2489,0,0.0003000000000010772,-252.43189999999998,0.0003000000000010772,-252.43189999999998,-15.62064,-268.05289999999997,0,0.0003000000000010772,-308.99989999999997,-15.620629999999998,-293.3789,0.0003000000000010772,-308.99989999999997,0,49.4978,-358.4979,49.4978,-358.4979,65.11880000000001,-374.1189,0,106.0659,-358.4979,90.44590000000001,-374.1189,106.0659,-358.4979,0],"shapeHoles":[],"isClosed":true,"roundness":0},"type":"VectorGeometry"},"indices":69,"material":0}]},{"primitives":[{"mode":4,"attributes":{"POSITION":70,"NORMAL":71},"extras":{"parameters":{"width":192.17274475097656,"height":66,"depth":262.7442321777344}},"material":1}]},{"primitives":[{"mode":4,"attributes":{"POSITION":72,"NORMAL":73,"TEXCOORD_0":74},"extras":{"shape":{"points":[-52.98311937681592,0,-52.98311937681592,-28.209573808967857,-52.98311937681592,28.209573808967857,0,0,51.07795176162921,-29.26176882864831,51.07795176162921,29.26176882864831,51.07795176162921,0,52.98311937681592,0,52.98311937681592,28.209573808967857,52.98311937681592,-28.209573808967857,0,0,-51.07795176162921,29.26176882864831,-51.07795176162921,-29.26176882864831,-51.07795176162921,0],"shapeHoles":[{"points":[0,-37.28690478598932,-21.361091244913265,-37.28690478598932,21.361091244913265,-37.28690478598932,0,38.67767714507562,0,38.67767714507562,-20.592988880546535,38.67767714507562,20.592988880546535,0,0,37.28690478598932,21.361091244913265,37.28690478598932,-21.361091244913265,37.28690478598932,0,-38.67767714507562,0,-38.67767714507562,20.592988880546535,-38.67767714507562,-20.592988880546535,0],"shapeHoles":[],"isClosed":true,"roundness":0}],"isClosed":true,"roundness":0},"parameters":{"width":105.96623875363184,"depth":31.324137510391285,"spikes":64,"angle":360,"innerRadius":73,"extrudeBevelSize":2,"extrudeBevelSegments":1,"height":102.15590352325842,"type":"EllipseGeometry"},"type":"EllipseGeometry"},"indices":75,"material":2}]},{"primitives":[{"mode":4,"attributes":{"POSITION":76,"NORMAL":77,"TEXCOORD_0":78},"extras":{"shape":{"points":[-54.73288769199481,0,-54.73288769199481,-29.141195408756694,-54.73288769199481,29.141195408756694,0,0,52.76480188763071,-30.228139184804853,52.76480188763071,30.228139184804853,52.76480188763071,0,54.73288769199481,0,54.73288769199481,29.141195408756694,54.73288769199481,-29.141195408756694,0,0,-52.76480188763071,30.228139184804853,-52.76480188763071,-30.228139184804853,-52.76480188763071,0],"shapeHoles":[{"points":[0,-38.518305377970414,-22.066541604907542,-38.518305377970414,22.066541604907542,-38.518305377970414,0,39.95500801515621,0,39.95500801515621,-21.273072648392382,39.95500801515621,21.273072648392382,0,0,38.518305377970414,22.066541604907542,38.518305377970414,-22.066541604907542,38.518305377970414,0,-39.95500801515621,0,-39.95500801515621,21.273072648392382,-39.95500801515621,-21.273072648392382,0],"shapeHoles":[],"isClosed":true,"roundness":0}],"isClosed":true,"roundness":0},"parameters":{"width":109.46577538398962,"depth":88,"spikes":64,"angle":360,"innerRadius":73,"extrudeBevelSize":2,"extrudeBevelSegments":1,"height":105.52960377526142,"type":"EllipseGeometry"},"type":"EllipseGeometry"},"indices":79,"material":0}]},{"primitives":[{"mode":4,"attributes":{"POSITION":80,"NORMAL":81},"extras":{"parameters":{"width":20.010318756103516,"height":10.010124206542969,"depth":20.010318756103516}},"indices":82,"material":1}]},{"primitives":[{"mode":4,"attributes":{"POSITION":83,"NORMAL":84,"TEXCOORD_0":85},"extras":{"shape":{"points":[-100.52707602370897,0,-100.52707602370897,-54.63873831908363,-100.52707602370897,54.63873831908363,0,0,98.93218731618077,-55.519571029879685,98.93218731618077,55.519571029879685,98.93218731618077,0,100.52707602370897,0,100.52707602370897,54.63873831908363,100.52707602370897,-54.63873831908363,0,0,-98.93218731618077,55.519571029879685,-98.93218731618077,-55.519571029879685,-98.93218731618077,0],"shapeHoles":[{"points":[0,-40.562196799634116,-22.763024122250673,-40.562196799634116,22.763024122250673,-40.562196799634116,0,41.21610116972068,0,41.21610116972068,-22.401882710824285,41.21610116972068,22.401882710824285,0,0,40.562196799634116,22.763024122250673,40.562196799634116,-22.763024122250673,40.562196799634116,0,-41.21610116972068,0,-41.21610116972068,22.401882710824285,-41.21610116972068,-22.401882710824285,0],"shapeHoles":[],"isClosed":true,"roundness":0}],"isClosed":true,"roundness":0},"parameters":{"width":201.05415204741794,"depth":7,"spikes":64,"angle":360,"innerRadius":41,"extrudeBevelSize":4,"extrudeBevelSegments":1,"height":197.86437463236155,"type":"EllipseGeometry"},"type":"EllipseGeometry"},"indices":86,"material":2}]},{"primitives":[{"mode":4,"attributes":{"POSITION":87,"NORMAL":88},"extras":{"parameters":{"width":203,"height":29,"depth":203}},"material":0}]},{"primitives":[{"mode":4,"attributes":{"POSITION":89,"NORMAL":90,"TEXCOORD_0":91},"extras":{"shape":{"points":[-101.5,0,-101.5,-56.0569021047,-101.5,56.0569021047,0,0,101.5,-56.0569021047,101.5,56.0569021047,101.5,0,101.5,0,101.5,56.0569021047,101.5,-56.0569021047,0,0,-101.5,56.0569021047,-101.5,-56.0569021047,-101.5,0],"shapeHoles":[{"points":[0,-51.765,-28.589020073397002,-51.765,28.589020073397002,-51.765,0,51.765,0,51.765,-28.589020073397002,51.765,28.589020073397002,0,0,51.765,28.589020073397002,51.765,-28.589020073397002,51.765,0,-51.765,0,-51.765,28.589020073397002,-51.765,-28.589020073397002,0],"shapeHoles":[],"isClosed":true,"roundness":0}],"isClosed":true,"roundness":0},"parameters":{"width":203,"depth":29,"spikes":64,"angle":360,"innerRadius":51,"extrudeBevelSize":2,"extrudeBevelSegments":1,"height":203,"type":"EllipseGeometry"},"type":"EllipseGeometry"},"indices":92,"material":1}]},{"primitives":[{"mode":4,"attributes":{"POSITION":93,"NORMAL":94,"TEXCOORD_0":95},"extras":{"shape":{"points":[-61.32015741137718,0,-61.32015741137718,-32.648427023922935,-61.32015741137718,32.648427023922935,0,0,59.11520648677332,-33.866187793639064,59.11520648677332,33.866187793639064,59.11520648677332,0,61.32015741137718,0,61.32015741137718,32.648427023922935,61.32015741137718,-32.648427023922935,0,0,-59.11520648677332,33.866187793639064,-59.11520648677332,-33.866187793639064,-59.11520648677332,0],"shapeHoles":[{"points":[0,-43.15410073534452,-24.72231708935652,-43.15410073534452,24.72231708935652,-43.15410073534452,0,44.763714910305346,0,44.763714910305346,-23.833351727463743,44.763714910305346,23.833351727463743,0,0,43.15410073534452,24.72231708935652,43.15410073534452,-24.72231708935652,43.15410073534452,0,-44.763714910305346,0,-44.763714910305346,23.833351727463743,-44.763714910305346,-23.833351727463743,0],"shapeHoles":[],"isClosed":true,"roundness":0}],"isClosed":true,"roundness":0},"parameters":{"width":122.64031482275436,"depth":80,"spikes":64,"angle":360,"innerRadius":73,"extrudeBevelSize":2,"extrudeBevelSegments":1,"height":118.23041297354663,"type":"EllipseGeometry"},"type":"EllipseGeometry"},"indices":96,"material":2}]},{"primitives":[{"mode":4,"attributes":{"POSITION":97,"NORMAL":98},"extras":{"parameters":{"width":20.010318756103516,"height":9.634284973144531,"depth":20.010318756103516}},"indices":99,"material":0}]},{"primitives":[{"mode":4,"attributes":{"POSITION":100,"NORMAL":101},"extras":{"parameters":{"width":20.010318756103516,"height":9.634284973144531,"depth":20.010318756103516}},"indices":102,"material":1}]},{"primitives":[{"mode":4,"attributes":{"POSITION":103,"NORMAL":104},"extras":{"parameters":{"width":20.010318756103516,"height":9.634284973144531,"depth":20.010318756103516}},"indices":105,"material":2}]},{"primitives":[{"mode":4,"attributes":{"POSITION":106,"NORMAL":107},"extras":{"parameters":{"width":20.010318756103516,"height":9.634284973144531,"depth":20.010318756103516}},"indices":108,"material":0}]},{"primitives":[{"mode":4,"attributes":{"POSITION":109,"NORMAL":110,"TEXCOORD_0":111},"extras":{"parameters":{"width":163.17164212962967,"subdivisions":12,"roundness":0,"extrudeBevelSize":2,"extrudeBevelSegments":1,"windingRule":0,"shape":{"points":[{"fi":0,"id":"52a97784-0589-48f5-a623-cea27e5713e8","data":{"roundness":0,"position":[0,-16.66835],"areControlsDirectionsMirrored":true,"controlPrevious":{"position":[10.711549999999999,-36.84345]},"controlNext":{"position":[-4.16853,-8.816849999999999]}}},{"fi":1,"id":"1df594c5-56fc-4306-bfcd-c51ca1dd67cb","data":{"roundness":0,"position":[15.303749999999999,-0.6585799999999997],"areControlsDirectionsMirrored":true,"controlPrevious":{"position":[7.28302,3.17422]},"controlNext":{"position":[35.406549999999996,-10.265049999999999]}}},{"fi":2,"id":"d8bb923b-aeab-4b27-bf04-c323a41be1d6","data":{"roundness":0,"position":[80.15575,-19.52005],"areControlsDirectionsMirrored":true,"controlPrevious":{"position":[60.00345,-19.52005]},"controlNext":{"position":[100.76875,-19.52005]}}},{"fi":3,"id":"c535b917-f97c-42bd-81b4-3deb934e2b1f","data":{"roundness":0,"position":[146.37775000000002,0],"areControlsDirectionsMirrored":true,"controlPrevious":{"position":[126.03075,-9.837449999999999]},"controlNext":{"position":[154.32875,3.84424]}}},{"fi":4,"id":"a56bfe26-e187-42c8-bb02-ec93dae37db6","data":{"roundness":0,"position":[161.44275000000002,-15.587349999999999],"areControlsDirectionsMirrored":true,"controlPrevious":{"position":[165.53775000000002,-7.76248]},"controlNext":{"position":[150.76375000000002,-35.99125]}}},{"fi":5,"id":"476c4e06-99c2-4fd2-a860-93fefe5348d3","data":{"roundness":0,"position":[140.15575,-82.52005],"areControlsDirectionsMirrored":true,"controlPrevious":{"position":[140.15575,-61.540549999999996]},"controlNext":{"position":[140.15575,-103.49905]}}},{"fi":6,"id":"7f218fed-4fa3-4a96-b3f6-ff42e70ecba7","data":{"roundness":0,"position":[161.44275000000002,-149.45305],"areControlsDirectionsMirrored":true,"controlPrevious":{"position":[150.76375000000002,-129.04905]},"controlNext":{"position":[165.53775000000002,-157.27805]}}},{"fi":7,"id":"dd5a2c8a-bd52-4d73-b62f-7a0254bdf1db","data":{"roundness":0,"position":[146.37775000000002,-165.04005],"areControlsDirectionsMirrored":true,"controlPrevious":{"position":[154.32875,-168.88405]},"controlNext":{"position":[126.03075,-155.20305]}}},{"fi":8,"id":"67beebed-b455-4dec-881d-f385f0286911","data":{"roundness":0,"position":[80.15575,-145.52005],"areControlsDirectionsMirrored":true,"controlPrevious":{"position":[100.76875,-145.52005]},"controlNext":{"position":[60.00345,-145.52005]}}},{"fi":9,"id":"3814ef88-8567-4f5b-8350-87f16177311a","data":{"roundness":0,"position":[15.303749999999999,-164.38105],"areControlsDirectionsMirrored":true,"controlPrevious":{"position":[35.406549999999996,-154.77505]},"controlNext":{"position":[7.283030000000001,-168.21405]}}},{"fi":10,"id":"d51d7d01-feda-4664-a063-3295145237fb","data":{"roundness":0,"position":[0,-148.37205],"areControlsDirectionsMirrored":true,"controlPrevious":{"position":[-4.16852,-156.22305]},"controlNext":{"position":[10.711549999999999,-128.19705]}}},{"fi":11,"id":"661bbcdd-1957-46ab-b03f-62aea4b4bc57","data":{"roundness":0,"position":[21.15575,-82.52005],"areControlsDirectionsMirrored":true,"controlPrevious":{"position":[21.15575,-103.21804999999999]},"controlNext":{"position":[21.15575,-61.82215]}}}],"isClosed":true,"roundness":0,"shapeHoles":[]},"type":"VectorGeometry","height":166.48716319444443,"depth":8},"shape":{"points":[0,-16.66835,10.711549999999999,-36.84345,-4.16853,-8.816849999999999,0,15.303749999999999,-0.6585799999999997,7.28302,3.17422,35.406549999999996,-10.265049999999999,0,80.15575,-19.52005,60.00345,-19.52005,100.76875,-19.52005,0,146.37775000000002,0,126.03075,-9.837449999999999,154.32875,3.84424,0,161.44275000000002,-15.587349999999999,165.53775000000002,-7.76248,150.76375000000002,-35.99125,0,140.15575,-82.52005,140.15575,-61.540549999999996,140.15575,-103.49905,0,161.44275000000002,-149.45305,150.76375000000002,-129.04905,165.53775000000002,-157.27805,0,146.37775000000002,-165.04005,154.32875,-168.88405,126.03075,-155.20305,0,80.15575,-145.52005,100.76875,-145.52005,60.00345,-145.52005,0,15.303749999999999,-164.38105,35.406549999999996,-154.77505,7.283030000000001,-168.21405,0,0,-148.37205,-4.16852,-156.22305,10.711549999999999,-128.19705,0,21.15575,-82.52005,21.15575,-103.21804999999999,21.15575,-61.82215,0],"shapeHoles":[],"isClosed":true,"roundness":0},"type":"VectorGeometry"},"indices":112,"material":1}]},{"primitives":[{"mode":4,"attributes":{"POSITION":113,"NORMAL":114,"TEXCOORD_0":115},"extras":{"parameters":{"width":163.17164212962967,"subdivisions":12,"roundness":0,"extrudeBevelSize":2,"extrudeBevelSegments":1,"windingRule":0,"shape":{"points":[{"fi":0,"id":"52a97784-0589-48f5-a623-cea27e5713e8","data":{"roundness":0,"position":[0,-16.66835],"areControlsDirectionsMirrored":true,"controlPrevious":{"position":[10.711549999999999,-36.84345]},"controlNext":{"position":[-4.16853,-8.816849999999999]}}},{"fi":1,"id":"1df594c5-56fc-4306-bfcd-c51ca1dd67cb","data":{"roundness":0,"position":[15.303749999999999,-0.6585799999999997],"areControlsDirectionsMirrored":true,"controlPrevious":{"position":[7.28302,3.17422]},"controlNext":{"position":[35.406549999999996,-10.265049999999999]}}},{"fi":2,"id":"d8bb923b-aeab-4b27-bf04-c323a41be1d6","data":{"roundness":0,"position":[80.15575,-19.52005],"areControlsDirectionsMirrored":true,"controlPrevious":{"position":[60.00345,-19.52005]},"controlNext":{"position":[100.76875,-19.52005]}}},{"fi":3,"id":"c535b917-f97c-42bd-81b4-3deb934e2b1f","data":{"roundness":0,"position":[146.37775000000002,0],"areControlsDirectionsMirrored":true,"controlPrevious":{"position":[126.03075,-9.837449999999999]},"controlNext":{"position":[154.32875,3.84424]}}},{"fi":4,"id":"a56bfe26-e187-42c8-bb02-ec93dae37db6","data":{"roundness":0,"position":[161.44275000000002,-15.587349999999999],"areControlsDirectionsMirrored":true,"controlPrevious":{"position":[165.53775000000002,-7.76248]},"controlNext":{"position":[150.76375000000002,-35.99125]}}},{"fi":5,"id":"476c4e06-99c2-4fd2-a860-93fefe5348d3","data":{"roundness":0,"position":[140.15575,-82.52005],"areControlsDirectionsMirrored":true,"controlPrevious":{"position":[140.15575,-61.540549999999996]},"controlNext":{"position":[140.15575,-103.49905]}}},{"fi":6,"id":"7f218fed-4fa3-4a96-b3f6-ff42e70ecba7","data":{"roundness":0,"position":[161.44275000000002,-149.45305],"areControlsDirectionsMirrored":true,"controlPrevious":{"position":[150.76375000000002,-129.04905]},"controlNext":{"position":[165.53775000000002,-157.27805]}}},{"fi":7,"id":"dd5a2c8a-bd52-4d73-b62f-7a0254bdf1db","data":{"roundness":0,"position":[146.37775000000002,-165.04005],"areControlsDirectionsMirrored":true,"controlPrevious":{"position":[154.32875,-168.88405]},"controlNext":{"position":[126.03075,-155.20305]}}},{"fi":8,"id":"67beebed-b455-4dec-881d-f385f0286911","data":{"roundness":0,"position":[80.15575,-145.52005],"areControlsDirectionsMirrored":true,"controlPrevious":{"position":[100.76875,-145.52005]},"controlNext":{"position":[60.00345,-145.52005]}}},{"fi":9,"id":"3814ef88-8567-4f5b-8350-87f16177311a","data":{"roundness":0,"position":[15.303749999999999,-164.38105],"areControlsDirectionsMirrored":true,"controlPrevious":{"position":[35.406549999999996,-154.77505]},"controlNext":{"position":[7.283030000000001,-168.21405]}}},{"fi":10,"id":"d51d7d01-feda-4664-a063-3295145237fb","data":{"roundness":0,"position":[0,-148.37205],"areControlsDirectionsMirrored":true,"controlPrevious":{"position":[-4.16852,-156.22305]},"controlNext":{"position":[10.711549999999999,-128.19705]}}},{"fi":11,"id":"661bbcdd-1957-46ab-b03f-62aea4b4bc57","data":{"roundness":0,"position":[21.15575,-82.52005],"areControlsDirectionsMirrored":true,"controlPrevious":{"position":[21.15575,-103.21804999999999]},"controlNext":{"position":[21.15575,-61.82215]}}}],"isClosed":true,"roundness":0,"shapeHoles":[]},"type":"VectorGeometry","height":166.48716319444443,"depth":31},"shape":{"points":[0,-16.66835,10.711549999999999,-36.84345,-4.16853,-8.816849999999999,0,15.303749999999999,-0.6585799999999997,7.28302,3.17422,35.406549999999996,-10.265049999999999,0,80.15575,-19.52005,60.00345,-19.52005,100.76875,-19.52005,0,146.37775000000002,0,126.03075,-9.837449999999999,154.32875,3.84424,0,161.44275000000002,-15.587349999999999,165.53775000000002,-7.76248,150.76375000000002,-35.99125,0,140.15575,-82.52005,140.15575,-61.540549999999996,140.15575,-103.49905,0,161.44275000000002,-149.45305,150.76375000000002,-129.04905,165.53775000000002,-157.27805,0,146.37775000000002,-165.04005,154.32875,-168.88405,126.03075,-155.20305,0,80.15575,-145.52005,100.76875,-145.52005,60.00345,-145.52005,0,15.303749999999999,-164.38105,35.406549999999996,-154.77505,7.283030000000001,-168.21405,0,0,-148.37205,-4.16852,-156.22305,10.711549999999999,-128.19705,0,21.15575,-82.52005,21.15575,-103.21804999999999,21.15575,-61.82215,0],"shapeHoles":[],"isClosed":true,"roundness":0},"type":"VectorGeometry"},"indices":116,"material":2}]},{"primitives":[{"mode":4,"attributes":{"POSITION":117,"NORMAL":118,"TEXCOORD_0":119},"extras":{"parameters":{"width":163.17164212962967,"subdivisions":12,"roundness":0,"extrudeBevelSize":2,"extrudeBevelSegments":1,"windingRule":0,"shape":{"points":[{"fi":0,"id":"52a97784-0589-48f5-a623-cea27e5713e8","data":{"roundness":0,"position":[0,-16.66835],"areControlsDirectionsMirrored":true,"controlPrevious":{"position":[10.711549999999999,-36.84345]},"controlNext":{"position":[-4.16853,-8.816849999999999]}}},{"fi":1,"id":"1df594c5-56fc-4306-bfcd-c51ca1dd67cb","data":{"roundness":0,"position":[15.303749999999999,-0.6585799999999997],"areControlsDirectionsMirrored":true,"controlPrevious":{"position":[7.28302,3.17422]},"controlNext":{"position":[35.406549999999996,-10.265049999999999]}}},{"fi":2,"id":"d8bb923b-aeab-4b27-bf04-c323a41be1d6","data":{"roundness":0,"position":[80.15575,-19.52005],"areControlsDirectionsMirrored":true,"controlPrevious":{"position":[60.00345,-19.52005]},"controlNext":{"position":[100.76875,-19.52005]}}},{"fi":3,"id":"c535b917-f97c-42bd-81b4-3deb934e2b1f","data":{"roundness":0,"position":[146.37775000000002,0],"areControlsDirectionsMirrored":true,"controlPrevious":{"position":[126.03075,-9.837449999999999]},"controlNext":{"position":[154.32875,3.84424]}}},{"fi":4,"id":"a56bfe26-e187-42c8-bb02-ec93dae37db6","data":{"roundness":0,"position":[161.44275000000002,-15.587349999999999],"areControlsDirectionsMirrored":true,"controlPrevious":{"position":[165.53775000000002,-7.76248]},"controlNext":{"position":[150.76375000000002,-35.99125]}}},{"fi":5,"id":"476c4e06-99c2-4fd2-a860-93fefe5348d3","data":{"roundness":0,"position":[140.15575,-82.52005],"areControlsDirectionsMirrored":true,"controlPrevious":{"position":[140.15575,-61.540549999999996]},"controlNext":{"position":[140.15575,-103.49905]}}},{"fi":6,"id":"7f218fed-4fa3-4a96-b3f6-ff42e70ecba7","data":{"roundness":0,"position":[161.44275000000002,-149.45305],"areControlsDirectionsMirrored":true,"controlPrevious":{"position":[150.76375000000002,-129.04905]},"controlNext":{"position":[165.53775000000002,-157.27805]}}},{"fi":7,"id":"dd5a2c8a-bd52-4d73-b62f-7a0254bdf1db","data":{"roundness":0,"position":[146.37775000000002,-165.04005],"areControlsDirectionsMirrored":true,"controlPrevious":{"position":[154.32875,-168.88405]},"controlNext":{"position":[126.03075,-155.20305]}}},{"fi":8,"id":"67beebed-b455-4dec-881d-f385f0286911","data":{"roundness":0,"position":[80.15575,-145.52005],"areControlsDirectionsMirrored":true,"controlPrevious":{"position":[100.76875,-145.52005]},"controlNext":{"position":[60.00345,-145.52005]}}},{"fi":9,"id":"3814ef88-8567-4f5b-8350-87f16177311a","data":{"roundness":0,"position":[15.303749999999999,-164.38105],"areControlsDirectionsMirrored":true,"controlPrevious":{"position":[35.406549999999996,-154.77505]},"controlNext":{"position":[7.283030000000001,-168.21405]}}},{"fi":10,"id":"d51d7d01-feda-4664-a063-3295145237fb","data":{"roundness":0,"position":[0,-148.37205],"areControlsDirectionsMirrored":true,"controlPrevious":{"position":[-4.16852,-156.22305]},"controlNext":{"position":[10.711549999999999,-128.19705]}}},{"fi":11,"id":"661bbcdd-1957-46ab-b03f-62aea4b4bc57","data":{"roundness":0,"position":[21.15575,-82.52005],"areControlsDirectionsMirrored":true,"controlPrevious":{"position":[21.15575,-103.21804999999999]},"controlNext":{"position":[21.15575,-61.82215]}}}],"isClosed":true,"roundness":0,"shapeHoles":[]},"type":"VectorGeometry","height":166.48716319444443,"depth":31},"shape":{"points":[0,-16.66835,10.711549999999999,-36.84345,-4.16853,-8.816849999999999,0,15.303749999999999,-0.6585799999999997,7.28302,3.17422,35.406549999999996,-10.265049999999999,0,80.15575,-19.52005,60.00345,-19.52005,100.76875,-19.52005,0,146.37775000000002,0,126.03075,-9.837449999999999,154.32875,3.84424,0,161.44275000000002,-15.587349999999999,165.53775000000002,-7.76248,150.76375000000002,-35.99125,0,140.15575,-82.52005,140.15575,-61.540549999999996,140.15575,-103.49905,0,161.44275000000002,-149.45305,150.76375000000002,-129.04905,165.53775000000002,-157.27805,0,146.37775000000002,-165.04005,154.32875,-168.88405,126.03075,-155.20305,0,80.15575,-145.52005,100.76875,-145.52005,60.00345,-145.52005,0,15.303749999999999,-164.38105,35.406549999999996,-154.77505,7.283030000000001,-168.21405,0,0,-148.37205,-4.16852,-156.22305,10.711549999999999,-128.19705,0,21.15575,-82.52005,21.15575,-103.21804999999999,21.15575,-61.82215,0],"shapeHoles":[],"isClosed":true,"roundness":0},"type":"VectorGeometry"},"indices":120,"material":0}]},{"primitives":[{"mode":4,"attributes":{"POSITION":121,"NORMAL":122},"extras":{"parameters":{"width":20.010318756103516,"height":9.634284973144531,"depth":20.010318756103516}},"indices":123,"material":1}]},{"primitives":[{"mode":4,"attributes":{"POSITION":124,"NORMAL":125},"extras":{"parameters":{"width":20.010318756103516,"height":9.634284973144531,"depth":20.010318756103516}},"indices":126,"material":2}]},{"primitives":[{"mode":4,"attributes":{"POSITION":127,"NORMAL":128,"TEXCOORD_0":129},"extras":{"shape":{"points":[-1401.134538910506,1250.3895412496886,-1401.134538910506,1250.3895412496886,-1401.134538910506,1250.3895412496886,0,1401.134538910506,1250.3895412496886,1401.134538910506,1250.3895412496886,1401.134538910506,1250.3895412496886,0,1401.134538910506,-1250.3895412496886,1401.134538910506,-1250.3895412496886,1401.134538910506,-1250.3895412496886,0,-1401.134538910506,-1250.3895412496886,-1401.134538910506,-1250.3895412496886,-1401.134538910506,-1250.3895412496886,0],"shapeHoles":[],"isClosed":true,"roundness":0},"parameters":{"width":2802.269077821012,"depth":0,"cornerRadius":[0,0,0,0],"cornerType":1,"extrudeBevelSize":0,"extrudeBevelSegments":1,"height":2500.779082499377,"type":"RectangleGeometry","subdivisions":12,"shape":{"isClosed":true,"points":[{"id":"5683661a-a627-4c8c-9ff3-e71930afc70d","fi":0,"data":{"position":[-2000,2000],"controlNext":{"position":[-2000,2000]},"controlPrevious":{"position":[-2000,2000]},"areControlsDirectionsMirrored":true,"roundness":0}},{"id":"56630cae-0215-46ed-932b-338aa7f9f3b3","fi":1,"data":{"position":[2000,2000],"controlNext":{"position":[2000,2000]},"controlPrevious":{"position":[2000,2000]},"areControlsDirectionsMirrored":true,"roundness":0}},{"id":"5199f56f-4b4d-4226-b1a3-f7901653aa3d","fi":2,"data":{"position":[2000,-2000],"controlNext":{"position":[2000,-2000]},"controlPrevious":{"position":[2000,-2000]},"areControlsDirectionsMirrored":true,"roundness":0}},{"id":"36f73cfc-adca-4067-90da-c3939512fdc0","fi":3,"data":{"position":[-2000,-2000],"controlNext":{"position":[-2000,-2000]},"controlPrevious":{"position":[-2000,-2000]},"areControlsDirectionsMirrored":true,"roundness":0}}],"roundness":0,"shapeHoles":[]}},"ui":{"enabledIndieCorners":false},"type":"RectangleGeometry"},"indices":130,"material":0}]}],"extensions":{"KHR_lights_punctual":{"lights":[{"name":"Directional Light","color":[1,1,1],"intensity":3.141592653589793,"type":"directional"}]}},"cameras":[{"type":"orthographic","orthographic":{"xmag":9.41964463366851,"ymag":7.30068724554465,"zfar":100000,"znear":0}}],"extensionsUsed":["KHR_lights_punctual"],"materials":[{"name":"Obsidian metal","doubleSided":true,"pbrMetallicRoughness":{"baseColorFactor":[0.018,0.022,0.035,1],"metallicFactor":0.95,"roughnessFactor":0.2}},{"name":"Cobalt chrome","doubleSided":true,"pbrMetallicRoughness":{"baseColorFactor":[0.035,0.12,0.86,1],"metallicFactor":0.9,"roughnessFactor":0.18}},{"name":"Violet alloy","doubleSided":true,"pbrMetallicRoughness":{"baseColorFactor":[0.42,0.025,0.78,1],"metallicFactor":0.84,"roughnessFactor":0.22}}]}
